<svg width="28" height="28" viewBox="0 0 28 28" fill="none" xmlns="http://www.w3.org/2000/svg">
<g id="Frame">
<g id="Group">
<path id="Vector" fill-rule="evenodd" clip-rule="evenodd" d="M13.21 12.5495C12.9396 12.5495 12.7197 12.3296 12.7196 12.0611C12.7196 11.7894 12.9396 11.5695 13.21 11.5695C13.4801 11.5695 13.7003 11.7894 13.7003 12.0611C13.7004 12.3296 13.4801 12.5495 13.21 12.5495ZM13.21 10.8029C12.5159 10.8029 11.9518 11.3658 11.9518 12.0612C11.9518 12.7534 12.516 13.3194 13.2101 13.3194C13.9042 13.3194 14.4683 12.7534 14.4682 12.0611C14.4682 11.3657 13.9041 10.8029 13.21 10.8029ZM24.6611 14.7487C24.2494 14.7487 23.9143 14.4123 23.9143 14.0015C23.9143 13.5875 24.2493 13.2544 24.6611 13.2543C25.0725 13.2543 25.4073 13.5875 25.4073 14.0015C25.4073 14.4123 25.0726 14.7487 24.6611 14.7487ZM18.9077 18.2388L18.9075 9.76448C18.9075 9.66418 18.8234 9.58012 18.7237 9.58012L12.738 9.58029L10.9141 11.4046L10.9143 18.2391C10.9143 18.3361 10.9984 18.4202 11.098 18.4202L18.724 18.42C18.8236 18.42 18.9077 18.3359 18.9077 18.2388ZM13.9442 25.646L13.9441 19.1899L11.098 19.1899C10.5734 19.1899 10.1464 18.763 10.1464 18.2391L10.1463 14.3836L8.6145 14.3836C8.45182 15.1987 7.77876 15.8359 6.92325 15.9265C6.73537 15.9582 6.52397 15.8074 6.5005 15.587C6.47816 15.3767 6.63054 15.1859 6.84143 15.1632C7.43626 15.1017 7.88454 14.6004 7.88454 14.002C7.88555 13.7132 7.77945 13.4344 7.58677 13.2193C7.39409 13.0042 7.12851 12.8682 6.84138 12.8376C6.63048 12.815 6.47816 12.6274 6.50045 12.4139C6.52307 12.2037 6.71263 12.0516 6.92319 12.0743C7.7787 12.1648 8.45182 12.802 8.61456 13.6171L10.1464 13.617L10.1463 11.2461C10.1463 11.1426 10.1871 11.0456 10.2592 10.9744L12.3076 8.92369C12.3791 8.85252 12.4771 8.81371 12.579 8.81371L13.9439 8.81365L13.9437 2.35439C11.6965 1.5103 9.25923 3.17669 9.25929 5.60513C9.25945 6.42596 9.55057 7.22016 10.0809 7.84664C10.2181 8.00837 10.198 8.25096 10.0363 8.38682C9.87546 8.5229 9.63264 8.50436 9.49516 8.34157C9.03814 7.8014 8.72438 7.15773 8.58107 6.47207C6.90622 5.63851 4.88664 6.85477 4.8867 8.76544C4.88592 9.25611 5.02629 9.73665 5.29107 10.1498C5.43085 10.3653 5.31963 10.6565 5.07178 10.7255C3.61264 11.1363 2.59282 12.4819 2.59288 14.0021C2.59294 15.519 3.61281 16.8678 5.07189 17.2753C5.31851 17.3471 5.43118 17.6358 5.29118 17.8543C5.02664 18.2651 4.88686 18.7438 4.88692 19.2354C4.88698 21.1216 6.86434 22.3706 8.58141 21.5318C8.7253 20.8411 9.03949 20.1974 9.49544 19.659C9.63292 19.4973 9.87484 19.4778 10.0366 19.6137C10.1983 19.7528 10.2183 19.9954 10.0812 20.1571C9.54758 20.7866 9.25968 21.5775 9.25968 22.3986C9.25974 24.8281 11.6994 26.4892 13.9442 25.646ZM22.8348 20.8716C22.8348 21.2856 22.4996 21.6188 22.0879 21.6188C21.6765 21.6188 21.3417 21.2857 21.3417 20.8717C21.3417 20.4609 21.6765 20.1245 22.0879 20.1245C22.4996 20.1245 22.8348 20.4609 22.8348 20.8716ZM20.1392 24.4102C20.551 24.4102 20.8858 24.7434 20.8858 25.1541C20.8858 25.5681 20.551 25.9013 20.1392 25.9013C19.7278 25.9013 19.393 25.5682 19.393 25.1542C19.393 24.7434 19.7278 24.4102 20.1392 24.4102ZM20.1387 2.09875C20.5505 2.09875 20.8852 2.43514 20.8852 2.8459C20.8852 3.25666 20.5505 3.59305 20.1387 3.59311C19.7273 3.59311 19.3925 3.25672 19.3925 2.84596C19.3925 2.43514 19.7273 2.09875 20.1387 2.09875ZM21.3414 7.12833C21.3414 6.71757 21.6762 6.38112 22.0876 6.38112C22.4994 6.38112 22.8345 6.71752 22.8345 7.12828C22.8345 7.54228 22.4994 7.87543 22.0877 7.87548C21.6762 7.87548 21.3414 7.54234 21.3414 7.12833ZM24.6611 12.4878C23.9586 12.4878 23.3663 12.9666 23.1959 13.6167L19.6755 13.6168L19.6754 11.9899L22.0877 11.9898C22.3002 11.9898 22.4716 11.8184 22.4716 11.6081L22.4715 8.59357C23.1216 8.42216 23.6023 7.83024 23.6023 7.12833C23.6023 6.29382 22.923 5.6146 22.0875 5.61465C21.2527 5.61465 20.5735 6.29393 20.5735 7.12844C20.5735 7.83035 21.0542 8.42221 21.7037 8.59363L21.7038 11.2233L19.6754 11.2233L19.6753 9.76459C19.6753 9.2406 19.2483 8.81365 18.7237 8.81365L17.1317 8.81371L17.1317 5.58245L19.1981 4.0331C20.1882 4.81374 21.6531 4.10993 21.653 2.84596C21.653 2.01144 20.9738 1.33222 20.1386 1.33228C19.0646 1.33228 18.3333 2.42321 18.7368 3.41856L16.5174 5.08428C16.4207 5.15545 16.3638 5.26863 16.3638 5.39155L16.3639 8.81365L14.7117 8.81371L14.7116 2.09892C14.7116 1.95012 14.6239 1.81108 14.4874 1.74959C13.933 1.49731 13.3411 1.36795 12.7282 1.36795C10.3919 1.368 8.49136 3.26993 8.49142 5.60524C6.33385 4.89724 4.11871 6.50416 4.11877 8.76544C4.11877 9.24412 4.22002 9.71312 4.41506 10.1401C2.8693 10.774 1.82495 12.3008 1.82495 14.0021C1.82501 15.7002 2.86946 17.2269 4.41523 17.8608C3.4247 20.0456 5.02048 22.5637 7.44668 22.5637C7.80346 22.5637 8.15665 22.5054 8.49175 22.3954C8.49181 24.7351 10.3922 26.6326 12.7287 26.6325C13.3416 26.6325 13.9336 26.5063 14.488 26.2508C14.6244 26.1894 14.7121 26.0535 14.7121 25.9015L14.7119 19.1899L16.3641 19.1899L16.3641 22.612C16.3641 22.7317 16.4211 22.8449 16.5178 22.9193L18.7373 24.585C18.3342 25.5612 19.0562 26.668 20.1392 26.668C20.9744 26.668 21.6535 25.9887 21.6535 25.1542C21.6535 23.8845 20.1777 23.1861 19.1986 23.9704L17.132 22.4211L17.1319 19.1899L18.724 19.1898C19.2486 19.1898 19.6756 18.7629 19.6755 18.2389L19.6755 16.7769L21.7038 16.7769L21.7039 19.4065C21.0544 19.578 20.5738 20.1699 20.5738 20.8717C20.5738 21.7063 21.2531 22.3855 22.0879 22.3854C22.9233 22.3854 23.6026 21.7061 23.6026 20.8716C23.6026 20.1698 23.1219 19.5779 22.4718 19.4064L22.4717 16.3952C22.4719 16.3446 22.4621 16.2946 22.4429 16.2479C22.4236 16.2012 22.3954 16.1587 22.3597 16.1229C22.324 16.0872 22.2816 16.0588 22.235 16.0395C22.1883 16.0201 22.1383 16.0102 22.0878 16.0103L19.6755 16.0103L19.6755 14.3834L23.1959 14.3832C23.3664 15.0333 23.9586 15.5153 24.6611 15.5153C25.496 15.5153 26.1752 14.836 26.1752 14.0015C26.1752 13.167 25.4959 12.4878 24.6611 12.4878Z" fill="#2BB19C"/>
</g>
</g>
</svg>
