<svg width="28" height="28" viewBox="0 0 28 28" fill="none" xmlns="http://www.w3.org/2000/svg">
<g id="Frame">
<g id="Group">
<path id="Vector" d="M25.1609 2.58666C23.7345 1.99866 21.8526 1.6748 19.8617 1.6748C17.8708 1.6748 15.9889 1.99866 14.5626 2.58666C13.0133 3.22536 12.1601 4.12043 12.1601 5.10705V13.0465H12.0922C11.6421 13.0465 11.2899 13.3657 11.173 13.8795L10.9786 14.7346C10.7441 14.8125 10.5155 14.9072 10.2947 15.0182L9.55231 14.5508C9.10634 14.2702 8.63159 14.2935 8.31326 14.6117L7.59855 15.3264C7.28026 15.6447 7.25697 16.1195 7.53768 16.5654L8.00487 17.3078C7.89395 17.5286 7.79915 17.7572 7.72121 17.9918L6.86634 18.1862C6.35249 18.303 6.03328 18.6552 6.03328 19.1054V20.1161C6.03328 20.5662 6.35249 20.9185 6.86634 21.0353L7.7211 21.2297C7.799 21.4644 7.89381 21.693 8.00477 21.9139L7.53762 22.6561C7.25691 23.1021 7.28026 23.5769 7.59855 23.895L8.3132 24.6098C8.63148 24.9281 9.10628 24.9515 9.55226 24.6707L10.2947 24.2034C10.5155 24.3143 10.744 24.409 10.9785 24.4869L11.173 25.3421C11.2898 25.8559 11.6421 26.1751 12.0922 26.1751H13.1029C13.553 26.1751 13.9052 25.8559 14.0221 25.3421L14.2165 24.4873C14.4511 24.4094 14.6798 24.3146 14.9007 24.2035L15.6427 24.6706C16.0887 24.9516 16.5636 24.9282 16.8819 24.6098L17.5965 23.8951C17.9149 23.5768 17.9382 23.102 17.6574 22.656L17.4468 22.3215C18.2206 22.431 19.0297 22.4863 19.8616 22.4863C21.8578 22.4863 23.7412 22.1631 25.1649 21.5761C26.7115 20.9385 27.5633 20.0429 27.5633 19.0541V5.10705C27.5633 4.12048 26.71 3.22536 25.1608 2.58666H25.1609ZM19.8617 2.5498C23.8848 2.5498 26.6884 3.89752 26.6884 5.10705C26.6884 6.31657 23.8848 7.66423 19.8617 7.66423C15.8387 7.66423 13.0351 6.31657 13.0351 5.10705C13.0351 3.89752 15.8387 2.5498 19.8617 2.5498ZM16.2645 23.9897C16.2451 23.991 16.1904 23.9815 16.109 23.9302L15.1518 23.3277C15.0848 23.2855 15.0076 23.2623 14.9284 23.2606C14.8492 23.2588 14.7711 23.2786 14.7023 23.3177C14.3963 23.4919 14.0698 23.6273 13.7303 23.7206C13.654 23.7416 13.5848 23.7829 13.5301 23.8401C13.4754 23.8973 13.4373 23.9683 13.4197 24.0454L13.169 25.1479C13.1476 25.2421 13.114 25.2874 13.1008 25.3L12.0942 25.2999C12.081 25.2872 12.0475 25.2418 12.0262 25.1479L11.7754 24.0452C11.7579 23.968 11.7197 23.897 11.665 23.8398C11.6103 23.7827 11.5411 23.7414 11.4648 23.7204C11.1255 23.6269 10.7991 23.4916 10.4932 23.3175C10.4244 23.2783 10.3463 23.2586 10.2671 23.2603C10.188 23.2621 10.1108 23.2853 10.0438 23.3275L9.08616 23.9302C9.00456 23.9816 8.94966 23.99 8.93046 23.9897L8.2187 23.2777C8.21843 23.2593 8.22685 23.2036 8.27809 23.1222L8.88064 22.1649C8.92281 22.0979 8.94601 22.0207 8.94776 21.9415C8.94951 21.8623 8.92975 21.7842 8.89059 21.7154C8.71639 21.4094 8.58102 21.0829 8.4876 20.7435C8.46661 20.6671 8.42531 20.598 8.3681 20.5433C8.3109 20.4886 8.23993 20.4504 8.16276 20.4328L7.06026 20.1821C6.9662 20.1607 6.9208 20.1271 6.90817 20.114L6.90828 19.1074C6.92102 19.0942 6.96641 19.0607 7.06026 19.0394L8.16287 18.7887C8.24004 18.7711 8.31101 18.7329 8.36821 18.6782C8.42542 18.6235 8.46672 18.5543 8.48771 18.478C8.58116 18.1386 8.71653 17.8122 8.8907 17.5063C8.92986 17.4375 8.94962 17.3593 8.94786 17.2802C8.94611 17.2011 8.92292 17.1239 8.88075 17.0569L8.27809 16.0993C8.22669 16.0176 8.21837 15.9618 8.2187 15.9435L8.93057 15.2318C8.94966 15.2331 9.00467 15.2399 9.08616 15.2912L10.0437 15.8939C10.1107 15.9361 10.1879 15.9593 10.267 15.9611C10.3462 15.9628 10.4243 15.9431 10.4931 15.9039C10.799 15.7298 11.1254 15.5945 11.4647 15.5011C11.541 15.4801 11.6102 15.4388 11.6649 15.3816C11.7196 15.3244 11.7578 15.2534 11.7754 15.1763L12.0262 14.0735C12.0475 13.9794 12.0811 13.934 12.0942 13.9214L13.1009 13.9215C13.1141 13.9343 13.1475 13.9797 13.1689 14.0735L13.4196 15.1763C13.4372 15.2534 13.4754 15.3244 13.5301 15.3816C13.5848 15.4388 13.654 15.4801 13.7303 15.5011C14.0696 15.5945 14.396 15.7298 14.7019 15.9039C14.7707 15.9431 14.8489 15.9629 14.928 15.9611C15.0072 15.9594 15.0843 15.9361 15.1513 15.8939L16.1089 15.2912C16.1906 15.2398 16.2464 15.2317 16.2646 15.2318L16.9763 15.9437C16.9766 15.9621 16.9682 16.0178 16.9169 16.0993L16.3144 17.0565C16.2723 17.1236 16.2491 17.2007 16.2473 17.2799C16.2456 17.3591 16.2653 17.4372 16.3045 17.506C16.4786 17.812 16.614 18.1385 16.7075 18.478C16.7284 18.5543 16.7697 18.6235 16.8269 18.6782C16.8841 18.7329 16.9551 18.771 17.0323 18.7886L18.1348 19.0393C18.2288 19.0608 18.2742 19.0943 18.2868 19.1074L18.2867 20.1141C18.2739 20.1272 18.2286 20.1608 18.1348 20.182L17.032 20.4329C16.9548 20.4505 16.8838 20.4886 16.8266 20.5433C16.7695 20.598 16.7282 20.6672 16.7072 20.7435C16.6137 21.0829 16.4784 21.4093 16.3043 21.7151C16.2652 21.784 16.2454 21.8621 16.2472 21.9412C16.2489 22.0204 16.2721 22.0976 16.3143 22.1646L16.917 23.1222C16.9684 23.2038 16.9767 23.2596 16.9764 23.2778L16.2645 23.9897ZM19.8617 21.6114C19.0101 21.6114 18.1858 21.5496 17.4024 21.4295C17.4276 21.3634 17.4514 21.2969 17.4738 21.2299L18.3289 21.0354C18.8427 20.9185 19.1619 20.5663 19.1619 20.1162V19.1055C19.1619 18.6554 18.8427 18.3031 18.3289 18.1862L17.4741 17.9918C17.4366 17.8789 17.3951 17.7674 17.3498 17.6574C18.1532 17.7763 18.9949 17.8373 19.8618 17.8373C21.858 17.8373 23.7414 17.5141 25.165 16.9271C25.7897 16.6696 26.3008 16.3699 26.6884 16.0391V19.0542C26.6884 20.2637 23.8848 21.6114 19.8618 21.6114H19.8617ZM19.8617 16.9623C19.0498 16.9623 18.2625 16.9063 17.5118 16.797L17.6575 16.5656C17.9383 16.1196 17.915 15.6448 17.5967 15.3265L16.882 14.6117C16.5637 14.2935 16.0889 14.2702 15.643 14.5509L14.9005 15.0182C14.6797 14.9073 14.4512 14.8125 14.2167 14.7346L14.0222 13.8795C13.9054 13.3657 13.5532 13.0465 13.1031 13.0465H13.0352V11.3901C13.4228 11.721 13.9339 12.0206 14.5586 12.2781C15.9823 12.865 17.8656 13.1883 19.8618 13.1883C21.858 13.1883 23.7414 12.8651 25.1651 12.2781C25.7897 12.0206 26.3009 11.721 26.6885 11.3901V14.4051C26.6885 15.6146 23.8849 16.9623 19.8618 16.9623L19.8617 16.9623ZM19.8617 12.3132C15.8387 12.3132 13.0351 10.9656 13.0351 9.75603V6.73761C13.4235 7.0688 13.9361 7.36903 14.5626 7.62732C15.9889 8.21532 17.8708 8.53918 19.8617 8.53918C21.8526 8.53918 23.7346 8.21532 25.1609 7.62732C25.7874 7.36903 26.2999 7.06885 26.6884 6.73761V9.75603C26.6884 10.9656 23.8848 12.3132 19.8617 12.3132ZM17.6549 10.1425C17.6376 10.2572 17.5754 10.3604 17.4821 10.4293C17.3887 10.4982 17.2718 10.5273 17.1571 10.51C16.645 10.4329 16.147 10.3301 15.677 10.2047C15.6215 10.1899 15.5695 10.1643 15.5239 10.1293C15.4782 10.0944 15.44 10.0508 15.4112 10.0011C15.3824 9.95138 15.3637 9.89647 15.3562 9.83951C15.3486 9.78256 15.3523 9.72467 15.3672 9.66916C15.382 9.61365 15.4076 9.5616 15.4425 9.51599C15.4774 9.47037 15.521 9.43208 15.5707 9.40331C15.6205 9.37453 15.6754 9.35583 15.7323 9.34828C15.7893 9.34072 15.8472 9.34446 15.9027 9.35927C16.3414 9.47642 16.8072 9.57245 17.2873 9.64474C17.3441 9.65329 17.3987 9.67296 17.4479 9.7026C17.4972 9.73225 17.5401 9.7713 17.5742 9.81753C17.6083 9.86376 17.633 9.91626 17.6468 9.97203C17.6607 10.0278 17.6634 10.0857 17.6548 10.1426L17.6549 10.1425ZM24.3533 9.57485C24.3695 9.62996 24.3747 9.68774 24.3686 9.74487C24.3626 9.802 24.3453 9.85737 24.3178 9.90782C24.2903 9.95827 24.2531 10.0028 24.2084 10.0389C24.1637 10.075 24.1124 10.1019 24.0572 10.1182C22.7818 10.494 21.28 10.6927 19.7143 10.6927C19.5983 10.6927 19.487 10.6466 19.4049 10.5645C19.3229 10.4825 19.2768 10.3712 19.2768 10.2552C19.2768 10.1391 19.3229 10.0279 19.4049 9.94581C19.487 9.86376 19.5983 9.81766 19.7143 9.81766C21.1974 9.81766 22.6137 9.63134 23.8099 9.27883C23.865 9.26257 23.9228 9.25733 23.9799 9.2634C24.0371 9.26948 24.0924 9.28676 24.1429 9.31425C24.1934 9.34174 24.2379 9.37891 24.274 9.42362C24.3101 9.46834 24.337 9.51973 24.3532 9.57485H24.3533ZM24.3533 14.2814C24.3695 14.3365 24.3747 14.3943 24.3686 14.4514C24.3626 14.5086 24.3453 14.5639 24.3178 14.6144C24.2903 14.6648 24.2531 14.7094 24.2084 14.7455C24.1637 14.7816 24.1124 14.8085 24.0572 14.8247C22.7818 15.2006 21.28 15.3992 19.7143 15.3992C19.5983 15.3992 19.487 15.3531 19.4049 15.2711C19.3229 15.189 19.2768 15.0778 19.2768 14.9617C19.2768 14.8457 19.3229 14.7344 19.4049 14.6524C19.487 14.5703 19.5983 14.5242 19.7143 14.5242C21.1974 14.5242 22.6136 14.3379 23.8099 13.9854C23.865 13.9691 23.9228 13.9639 23.9799 13.97C24.037 13.9761 24.0924 13.9934 24.1429 14.0208C24.1933 14.0483 24.2379 14.0855 24.274 14.1302C24.3101 14.1749 24.337 14.2263 24.3532 14.2814H24.3533ZM24.3533 18.9305C24.3695 18.9856 24.3747 19.0434 24.3686 19.1005C24.3626 19.1577 24.3453 19.213 24.3178 19.2635C24.2903 19.3139 24.2531 19.3585 24.2084 19.3946C24.1637 19.4307 24.1124 19.4576 24.0572 19.4738C22.7818 19.8496 21.28 20.0483 19.7143 20.0483C19.5983 20.0483 19.487 20.0022 19.4049 19.9202C19.3229 19.8381 19.2768 19.7269 19.2768 19.6108C19.2768 19.4948 19.3229 19.3835 19.4049 19.3015C19.487 19.2194 19.5983 19.1733 19.7143 19.1733C21.1974 19.1733 22.6136 18.987 23.8099 18.6345C23.865 18.6182 23.9228 18.613 23.9799 18.6191C24.0371 18.6251 24.0924 18.6424 24.1429 18.6699C24.1934 18.6974 24.2379 18.7346 24.274 18.7793C24.3101 18.824 24.337 18.8754 24.3532 18.9305H24.3533ZM12.5976 17.0762C11.2 17.0762 10.063 18.2132 10.063 19.6108C10.063 21.0084 11.2 22.1454 12.5976 22.1454C13.9951 22.1454 15.1322 21.0084 15.1322 19.6108C15.1322 18.2133 13.9952 17.0762 12.5976 17.0762ZM12.5976 21.2703C11.6825 21.2703 10.938 20.5259 10.938 19.6108C10.938 18.6957 11.6825 17.9512 12.5976 17.9512C13.5127 17.9512 14.2572 18.6956 14.2572 19.6108C14.2572 20.5259 13.5127 21.2703 12.5976 21.2703ZM6.91583 13.8883L7.05747 13.2655C7.21261 13.2117 7.36442 13.1488 7.51209 13.077L8.05273 13.4173C8.43691 13.6593 8.86527 13.6353 9.14407 13.3565L9.70724 12.7934C9.98598 12.5145 10.0099 12.0862 9.76811 11.7021L9.42757 11.1611C9.49934 11.0136 9.56225 10.8619 9.61597 10.7068L10.239 10.5651C10.6816 10.4645 10.9676 10.1447 10.9676 9.75045V8.95409C10.9676 8.55991 10.6817 8.24009 10.2391 8.13941L9.61624 7.99777C9.56255 7.84263 9.49962 7.69084 9.42779 7.54321L9.76811 7.00246C10.0099 6.61845 9.98598 6.19008 9.70724 5.91117L9.14418 5.34816C8.86544 5.06937 8.43702 5.04552 8.05289 5.28724L7.51187 5.62778C7.36431 5.55601 7.21262 5.4931 7.05758 5.43938L6.91588 4.81627C6.8152 4.37369 6.49545 4.08778 6.1012 4.08778H5.30484C4.9106 4.08778 4.59079 4.37374 4.49016 4.81627L4.34847 5.43938C4.19343 5.49309 4.04173 5.55601 3.89418 5.62778L3.35321 5.28724C2.96914 5.04547 2.54077 5.06942 2.26198 5.34811L1.69886 5.91123C1.42006 6.19008 1.39616 6.61845 1.63799 7.00246L1.97842 7.54338C1.90662 7.69098 1.84369 7.84273 1.78997 7.99783L1.16697 8.13947C0.724438 8.2402 0.438477 8.55996 0.438477 8.95415V9.75051C0.438477 10.1448 0.724492 10.4646 1.16708 10.5652L1.78986 10.7068C1.84355 10.862 1.9065 11.0138 1.97837 11.1614L1.63805 11.7021C1.39622 12.0862 1.42006 12.5145 1.69891 12.7934L2.26198 13.3564C2.54083 13.6353 2.9692 13.6592 3.35327 13.4174L3.89423 13.0769C4.04179 13.1486 4.19349 13.2115 4.34852 13.2653L4.49022 13.8883C4.5909 14.3309 4.91066 14.6169 5.3049 14.6169H6.10126C6.4955 14.6169 6.81526 14.3309 6.91594 13.8883H6.91583ZM6.04794 13.7419H5.358C5.35182 13.7264 5.3469 13.7105 5.34329 13.6942L5.1457 12.8254C5.12815 12.7483 5.08998 12.6773 5.03528 12.6201C4.98058 12.5629 4.91139 12.5216 4.83508 12.5006C4.57516 12.4291 4.32517 12.3254 4.09089 12.192C4.02208 12.1528 3.94394 12.1331 3.8648 12.1348C3.78565 12.1366 3.70847 12.1598 3.64147 12.202L2.88695 12.6769C2.87295 12.6858 2.85824 12.6936 2.84298 12.7001L2.35505 12.2123C2.36163 12.197 2.36942 12.1823 2.37835 12.1682L2.85304 11.414C2.8952 11.347 2.9184 11.2698 2.92015 11.1907C2.9219 11.1115 2.90215 11.0334 2.86299 10.9646C2.72961 10.7302 2.62593 10.4801 2.55434 10.2202C2.53335 10.1438 2.49206 10.0746 2.43485 10.0199C2.37765 9.96522 2.30667 9.92705 2.22949 9.90948L1.36084 9.71195C1.3446 9.70838 1.32868 9.70346 1.31326 9.69724V9.00731C1.32523 9.00238 1.34104 8.99708 1.36089 8.99259L2.2296 8.79506C2.30678 8.7775 2.37775 8.73934 2.43495 8.68464C2.49215 8.62994 2.53345 8.56075 2.55445 8.48444C2.62599 8.22447 2.72968 7.97445 2.8631 7.74014C2.90226 7.67133 2.92201 7.59318 2.92026 7.51403C2.91851 7.43487 2.89531 7.35768 2.85315 7.29066L2.3783 6.53625C2.36936 6.52226 2.36158 6.50755 2.35505 6.49228L2.84292 6.00441C2.8549 6.00945 2.86977 6.01688 2.887 6.02771L3.64141 6.50256C3.7084 6.54475 3.78557 6.56796 3.86471 6.56972C3.94385 6.57149 4.02199 6.55173 4.09078 6.51257C4.32511 6.37924 4.57511 6.27558 4.83502 6.20397C4.91133 6.18299 4.98053 6.1417 5.03523 6.08451C5.08993 6.02731 5.12809 5.95635 5.14565 5.87918L5.34323 5.0103C5.34772 4.99051 5.35302 4.9747 5.35789 4.96273H6.04788C6.05275 4.9747 6.05805 4.99051 6.06254 5.01025L6.26013 5.87913C6.27767 5.95631 6.31582 6.02729 6.37053 6.08449C6.42523 6.1417 6.49443 6.18299 6.57075 6.20397C6.83068 6.27553 7.08069 6.37919 7.31499 6.51257C7.38379 6.55171 7.46192 6.57145 7.54106 6.56969C7.62019 6.56792 7.69737 6.54473 7.76436 6.50256L8.51883 6.02771C8.536 6.01688 8.55093 6.00945 8.56285 6.00441L9.05072 6.49223C9.04418 6.50754 9.03639 6.52228 9.02742 6.53631L8.55268 7.2905C8.51051 7.35752 8.48731 7.43473 8.48556 7.51389C8.48381 7.59305 8.50356 7.67121 8.54273 7.74003C8.67612 7.97439 8.7798 8.22445 8.85138 8.48444C8.87238 8.56075 8.91368 8.62994 8.97088 8.68464C9.02808 8.73934 9.09905 8.7775 9.17623 8.79506L10.0448 8.99259C10.0646 8.99708 10.0804 9.00238 10.0925 9.00731V9.69724C10.0805 9.70216 10.0647 9.70747 10.0449 9.71195L9.17606 9.90954C9.09889 9.9271 9.02792 9.96526 8.97071 10.02C8.91351 10.0747 8.87221 10.1439 8.85122 10.2202C8.77964 10.4801 8.67597 10.7301 8.54262 10.9644C8.50347 11.0332 8.48372 11.1113 8.48548 11.1904C8.48725 11.2696 8.51045 11.3468 8.55262 11.4138L9.02753 12.1682C9.03836 12.1854 9.0458 12.2003 9.05077 12.2123L8.56291 12.7001C8.54762 12.6936 8.5329 12.6858 8.51888 12.6768L7.76469 12.2021C7.69768 12.16 7.62048 12.1368 7.54132 12.135C7.46217 12.1333 7.38402 12.153 7.31521 12.1922C7.08081 12.3256 6.83072 12.4293 6.5707 12.5009C6.49439 12.5218 6.42521 12.5631 6.37052 12.6203C6.31583 12.6775 6.27768 12.7485 6.26013 12.8256L6.06259 13.6942C6.05898 13.7105 6.05412 13.7264 6.04794 13.7419ZM7.79263 9.35227C7.79263 8.20001 6.85518 7.26255 5.70297 7.26255C4.55076 7.26255 3.6133 8.20001 3.6133 9.35227C3.6133 10.5045 4.55076 11.4419 5.70297 11.4419C6.85518 11.4419 7.79263 10.5045 7.79263 9.35227ZM5.70297 10.5669C5.03316 10.5669 4.4883 10.022 4.4883 9.35227C4.4883 8.68252 5.03321 8.13755 5.70297 8.13755C6.37273 8.13755 6.91763 8.68246 6.91763 9.35227C6.91763 10.0221 6.37273 10.5669 5.70297 10.5669Z" fill="#2BB19C"/>
</g>
</g>
</svg>
