<svg width="28" height="28" viewBox="0 0 28 28" fill="none" xmlns="http://www.w3.org/2000/svg">
<g id="Frame">
<g id="Group">
<path id="Vector" fill-rule="evenodd" clip-rule="evenodd" d="M10.8904 24.5162C11.1297 24.9964 11.4 25.42 11.6958 25.7763C11.7295 25.8168 11.6885 25.8766 11.6386 25.8598C10.1647 25.3657 8.88943 24.4211 7.98352 23.1798C7.97778 23.1719 7.97432 23.1626 7.97354 23.1529C7.97275 23.1432 7.97467 23.1335 7.97908 23.1248C7.98349 23.1162 7.99022 23.1089 7.99851 23.1038C8.00681 23.0987 8.01635 23.096 8.02608 23.0961L10.2862 23.0977C10.3095 23.0977 10.3293 23.1122 10.3364 23.1344C10.4957 23.6343 10.6817 24.0976 10.8904 24.5162ZM5.62043 13.8422V17.0258C5.62043 17.0548 5.64406 17.0784 5.67307 17.0784H7.62322C7.65222 17.0784 7.67586 17.0548 7.67586 17.0258V13.8486C7.67584 13.8347 7.67029 13.8213 7.66042 13.8114C7.65055 13.8015 7.63717 13.796 7.62322 13.796H5.66663C5.65444 13.7962 5.64281 13.8011 5.63419 13.8097C5.62557 13.8183 5.62063 13.83 5.62043 13.8422ZM20.345 13.3512V17.0258C20.345 17.0548 20.3686 17.0784 20.3977 17.0784H22.3478C22.3768 17.0784 22.4004 17.0548 22.4004 17.0258V7.46153C22.4002 7.44934 22.3953 7.4377 22.3867 7.42908C22.3781 7.42046 22.3664 7.41553 22.3542 7.41533H20.3912C20.379 7.41553 20.3674 7.42046 20.3588 7.42908C20.3502 7.4377 20.3452 7.44934 20.345 7.46153V13.3512ZM17.4001 13.8486V17.0258C17.4001 17.0548 17.4238 17.0784 17.4528 17.0784H19.4029C19.4319 17.0784 19.4556 17.0548 19.4556 17.0258V13.8486C19.4556 13.8347 19.45 13.8213 19.4401 13.8114C19.4303 13.8015 19.4169 13.796 19.4029 13.796H17.4528C17.4388 13.796 17.4254 13.8015 17.4156 13.8114C17.4057 13.8213 17.4002 13.8347 17.4001 13.8486ZM14.4552 14.5782V17.0258C14.4552 17.0548 14.4788 17.0784 14.5079 17.0784H16.458C16.487 17.0784 16.5106 17.0548 16.5106 17.0258V11.6335C16.5104 11.6213 16.5055 11.6096 16.4969 11.601C16.4883 11.5924 16.4766 11.5875 16.4644 11.5873H14.5014C14.4892 11.5875 14.4776 11.5924 14.469 11.601C14.4604 11.6096 14.4554 11.6213 14.4552 11.6335V14.5782ZM11.5103 15.0756V17.0258C11.5103 17.0548 11.5339 17.0784 11.5629 17.0784H13.5131C13.5421 17.0784 13.5657 17.0548 13.5657 17.0258V15.0756C13.5657 15.0617 13.5601 15.0483 13.5503 15.0384C13.5404 15.0285 13.527 15.023 13.5131 15.023H11.5629C11.549 15.023 11.5356 15.0285 11.5257 15.0384C11.5159 15.0483 11.5103 15.0617 11.5103 15.0756ZM8.56536 12.9121V17.0258C8.56536 17.0548 8.58899 17.0784 8.618 17.0784H10.5681C10.5972 17.0784 10.6208 17.0548 10.6208 17.0258V9.91561C10.6206 9.90342 10.6157 9.89179 10.607 9.88317C10.5984 9.87455 10.5868 9.86962 10.5746 9.86941H8.61156C8.59937 9.86962 8.58774 9.87455 8.57912 9.88317C8.57049 9.89179 8.56556 9.90342 8.56536 9.91561V12.9121ZM5.50843 8.25477L7.14106 6.33402C7.14848 6.32545 7.15289 6.31468 7.15362 6.30337C7.15435 6.29205 7.15135 6.28081 7.14509 6.27136C6.51425 5.29522 7.21346 3.98342 8.39422 3.98342C9.31066 3.98342 10.0033 4.80393 9.86086 5.70156C9.85899 5.71271 9.8608 5.72418 9.86602 5.73421C9.87125 5.74425 9.8796 5.75231 9.88982 5.75717L12.1573 6.85941C12.1674 6.86446 12.1789 6.86606 12.19 6.86397C12.2012 6.86188 12.2113 6.85621 12.2189 6.84782C12.677 6.35317 13.4154 6.22751 14.0116 6.54906C14.0324 6.56026 14.057 6.55668 14.0737 6.5401L15.861 4.76261C15.8691 4.75468 15.8744 4.74433 15.8761 4.73312C15.8778 4.7219 15.8757 4.71045 15.8703 4.7005C15.3498 3.72465 16.0549 2.51941 17.1821 2.51941C17.6935 2.51941 18.1523 2.77914 18.4216 3.18649C18.4277 3.19597 18.4368 3.2032 18.4475 3.20707C18.4581 3.21094 18.4697 3.21124 18.4805 3.20793L20.8975 2.49063C20.9083 2.4875 20.9179 2.48091 20.9247 2.47186C20.9315 2.4628 20.9352 2.45178 20.9351 2.44045C20.94 1.62627 21.6018 0.964966 22.4199 0.964966C23.7383 0.964966 24.4031 2.56651 23.4699 3.49975C22.8018 4.16783 21.695 4.04721 21.1805 3.26763C21.1743 3.25812 21.1653 3.25087 21.1546 3.24699C21.144 3.24311 21.1324 3.24281 21.1216 3.24613L18.7046 3.96343C18.6937 3.96656 18.6841 3.97316 18.6774 3.98222C18.6706 3.99129 18.6669 4.00233 18.667 4.01366C18.6614 5.13517 17.4546 5.83971 16.4787 5.31219C16.4688 5.30668 16.4574 5.30457 16.4461 5.30618C16.4349 5.30779 16.4245 5.31302 16.4166 5.32109L14.6293 7.09859C14.6212 7.10651 14.6159 7.11687 14.6142 7.12808C14.6125 7.13929 14.6145 7.15075 14.62 7.16069C15.1405 8.13649 14.4354 9.34178 13.3082 9.34178C12.3918 9.34178 11.6991 8.52127 11.8415 7.62365C11.8434 7.61249 11.8416 7.60103 11.8364 7.59099C11.8311 7.58096 11.8228 7.5729 11.8126 7.56804L9.54514 6.46579C9.535 6.46074 9.52349 6.45914 9.51236 6.46123C9.50123 6.46333 9.49109 6.469 9.48348 6.47738C9.05738 6.93748 8.3828 7.08297 7.80275 6.83052C7.79242 6.82589 7.78085 6.82477 7.76982 6.82733C7.75879 6.82989 7.7489 6.83598 7.74166 6.84469L6.10898 8.76543C6.10155 8.774 6.09714 8.78477 6.09641 8.79608C6.09568 8.8074 6.09868 8.81864 6.10494 8.82809C6.73578 9.80429 6.03651 11.116 4.85581 11.116C3.53757 11.116 2.87262 9.51454 3.80592 8.58125C4.23566 8.1515 4.88739 8.02511 5.44745 8.26888C5.45776 8.27349 5.4693 8.27461 5.48031 8.27206C5.49132 8.26951 5.50119 8.26344 5.50843 8.25477ZM3.22951 14.9852C2.98468 14.9852 2.78442 15.1855 2.78442 15.4303V19.0168C2.78442 19.2616 2.98474 19.4619 3.22951 19.4619H5.74274C5.77006 19.4619 5.79269 19.4828 5.79504 19.51C6.16094 23.7323 9.6988 27.0206 13.9822 27.0348L13.9617 27.0345C14.1837 27.0379 14.3889 27.015 14.6031 26.9607C14.4094 27.01 14.2103 27.035 14.0104 27.035C18.3057 27.035 21.859 23.7422 22.2258 19.51C22.2268 19.4969 22.2328 19.4847 22.2425 19.4757C22.2522 19.4668 22.2649 19.4619 22.2781 19.4619H24.7704C25.0152 19.4619 25.2155 19.2616 25.2155 19.0168V15.4303C25.2155 15.1855 25.0151 14.9852 24.7704 14.9852H23.2565C23.2426 14.9853 23.2292 14.9908 23.2193 15.0007C23.2094 15.0105 23.2039 15.0239 23.2039 15.0379V17.8293C23.2039 17.8583 23.1802 17.8819 23.1512 17.8819H4.86958C4.85563 17.8819 4.84225 17.8763 4.83238 17.8665C4.82251 17.8566 4.81696 17.8432 4.81694 17.8293V15.0379C4.81693 15.0239 4.81138 15.0105 4.80151 15.0007C4.79164 14.9908 4.77826 14.9853 4.7643 14.9852H3.22951ZM21.3792 19.4619C21.4104 19.4619 21.4346 19.4886 21.4316 19.5197C21.3376 20.4893 21.0534 21.4308 20.5952 22.2904C20.5908 22.2989 20.5841 22.3061 20.5759 22.311C20.5677 22.3159 20.5583 22.3185 20.5487 22.3183L17.98 22.3164C17.972 22.3165 17.9642 22.3147 17.957 22.3112C17.9498 22.3078 17.9435 22.3027 17.9386 22.2965C17.9337 22.2902 17.9302 22.283 17.9285 22.2752C17.9268 22.2674 17.9269 22.2594 17.9288 22.2516C18.1293 21.4072 18.2589 20.4837 18.3021 19.5122C18.3027 19.4987 18.3085 19.4859 18.3183 19.4765C18.3281 19.4671 18.3412 19.4619 18.3547 19.4619H21.3792ZM17.4586 19.4619C17.4888 19.4619 17.5126 19.4869 17.5112 19.517C17.4649 20.5054 17.3252 21.4372 17.1102 22.2762C17.1074 22.2876 17.1009 22.2977 17.0916 22.3049C17.0823 22.3121 17.0709 22.3159 17.0592 22.3158L14.4195 22.3139C14.4056 22.3139 14.3922 22.3083 14.3823 22.2984C14.3725 22.2886 14.3669 22.2752 14.3669 22.2612L14.3693 19.5146C14.3694 19.5006 14.3749 19.4873 14.3848 19.4774C14.3946 19.4676 14.408 19.462 14.422 19.462H17.4586V19.4619ZM13.5821 19.4619C13.6111 19.4619 13.6348 19.4856 13.6348 19.5146L13.6324 22.2606C13.6324 22.2897 13.6087 22.3133 13.5797 22.3133L10.9605 22.3114C10.9488 22.3115 10.9374 22.3076 10.9281 22.3004C10.9189 22.2932 10.9123 22.2832 10.9095 22.2718C10.6952 21.4339 10.5559 20.5037 10.5096 19.5171C10.5093 19.51 10.5104 19.5029 10.5128 19.4962C10.5153 19.4895 10.5191 19.4834 10.5241 19.4782C10.529 19.4731 10.5349 19.469 10.5415 19.4662C10.548 19.4634 10.5551 19.462 10.5622 19.462H13.5821V19.4619ZM9.6661 19.4619C9.67965 19.4619 9.69268 19.4672 9.70248 19.4765C9.71227 19.4859 9.71808 19.4987 9.71868 19.5122C9.76186 20.4815 9.89094 21.403 10.0907 22.2459C10.0926 22.2536 10.0926 22.2617 10.0909 22.2694C10.0892 22.2772 10.0858 22.2845 10.0808 22.2907C10.0759 22.297 10.0696 22.302 10.0624 22.3055C10.0553 22.3089 10.0474 22.3107 10.0394 22.3107L7.46709 22.3088C7.45751 22.3089 7.44808 22.3063 7.43987 22.3014C7.43166 22.2965 7.42499 22.2893 7.42061 22.2808C6.96533 21.4238 6.68289 20.4856 6.58934 19.5197C6.58861 19.5124 6.58941 19.505 6.59172 19.498C6.59402 19.491 6.59776 19.4846 6.6027 19.4791C6.60764 19.4737 6.61367 19.4693 6.6204 19.4664C6.62713 19.4634 6.63441 19.4619 6.64176 19.4619H9.6661ZM17.7329 23.1032L19.9885 23.1048C19.9983 23.1048 20.0078 23.1075 20.0161 23.1126C20.0244 23.1177 20.0311 23.125 20.0355 23.1337C20.0399 23.1424 20.0418 23.1521 20.041 23.1618C20.0402 23.1715 20.0367 23.1808 20.031 23.1886C19.1253 24.4257 17.8527 25.3669 16.3822 25.8599C16.3323 25.8767 16.2913 25.8169 16.325 25.7764C16.9342 25.0432 17.378 24.0941 17.6827 23.1398C17.686 23.1291 17.6927 23.1198 17.7017 23.1132C17.7108 23.1066 17.7217 23.103 17.7329 23.1032ZM14.4188 23.1008L16.7901 23.1025C16.7985 23.1025 16.8068 23.1045 16.8143 23.1083C16.8218 23.1122 16.8282 23.1178 16.8331 23.1247C16.838 23.1315 16.8411 23.1395 16.8423 23.1478C16.8434 23.1562 16.8426 23.1647 16.8398 23.1726C16.3858 24.4634 15.5639 25.8894 14.4296 26.1895C14.4218 26.1916 14.4136 26.1918 14.4057 26.1902C14.3978 26.1887 14.3904 26.1853 14.384 26.1803C14.3776 26.1754 14.3724 26.169 14.3688 26.1618C14.3653 26.1545 14.3635 26.1466 14.3635 26.1385L14.3661 23.1533C14.3661 23.1243 14.3898 23.1008 14.4188 23.1008ZM11.2294 23.0984C11.221 23.0984 11.2126 23.1004 11.2052 23.1042C11.1977 23.1081 11.1912 23.1137 11.1863 23.1205C11.1814 23.1274 11.1783 23.1354 11.1771 23.1437C11.176 23.1521 11.1768 23.1606 11.1797 23.1685C11.6296 24.4498 12.4411 25.8639 13.562 26.1815C13.5698 26.1837 13.578 26.1841 13.586 26.1826C13.5941 26.1811 13.6016 26.1778 13.6081 26.1728C13.6146 26.1679 13.6199 26.1616 13.6235 26.1543C13.6271 26.147 13.629 26.139 13.629 26.1308L13.6316 23.1528C13.6316 23.1389 13.626 23.1255 13.6161 23.1156C13.6063 23.1057 13.5929 23.1002 13.5789 23.1001L11.2294 23.0984Z" fill="#2BB19C"/>
</g>
</g>
</svg>
