<svg width="41" height="41" viewBox="0 0 41 41" fill="none" xmlns="http://www.w3.org/2000/svg">
<g id="vuesax/bold/like">
<g id="like">
<path id="Vector" d="M14.626 31.4393V14.5059C14.626 13.8393 14.826 13.1893 15.1926 12.6393L19.7426 5.8726C20.4593 4.78927 22.2426 4.0226 23.7593 4.58927C25.3926 5.13927 26.476 6.9726 26.126 8.60593L25.2593 14.0559C25.1926 14.5559 25.326 15.0059 25.6093 15.3559C25.8926 15.6726 26.3093 15.8726 26.7593 15.8726H33.6093C34.926 15.8726 36.0593 16.4059 36.726 17.3393C37.3593 18.2393 37.476 19.4059 37.0593 20.5893L32.9593 33.0726C32.4426 35.1393 30.1926 36.8226 27.9593 36.8226H21.4593C20.3426 36.8226 18.776 36.4393 18.0593 35.7226L15.926 34.0726C15.1093 33.4559 14.626 32.4726 14.626 31.4393Z" fill="white"/>
<path id="Vector_2" d="M9.32485 11.2559H7.60819C5.02485 11.2559 3.97485 12.2559 3.97485 14.7225V31.4892C3.97485 33.9559 5.02485 34.9559 7.60819 34.9559H9.32485C11.9082 34.9559 12.9582 33.9559 12.9582 31.4892V14.7225C12.9582 12.2559 11.9082 11.2559 9.32485 11.2559Z" fill="white"/>
</g>
</g>
</svg>
