<svg width="28" height="28" viewBox="0 0 28 28" fill="none" xmlns="http://www.w3.org/2000/svg">
<g id="Frame">
<g id="Group">
<path id="Vector" d="M21.8323 7.63055C21.6497 7.7361 21.415 7.67375 21.31 7.49274C21.2045 7.31008 21.2668 7.07547 21.4495 6.97047L23.8087 5.60766C23.9914 5.50211 24.226 5.56446 24.331 5.74547C24.4365 5.92813 24.3742 6.16274 24.1915 6.26774L21.8323 7.63055ZM18.0764 19.5612C18.0513 19.5179 18.0349 19.47 18.0283 19.4204C18.0218 19.3707 18.025 19.3203 18.038 19.2719C18.0509 19.2235 18.0733 19.1782 18.1038 19.1385C18.1344 19.0988 18.1724 19.0655 18.2158 19.0406C18.3985 18.935 18.6315 18.9984 18.7365 19.1816L20.0993 21.5425C20.2048 21.7241 20.1414 21.9581 19.9582 22.062C19.7766 22.1676 19.5425 22.1041 19.4386 21.9226L18.0764 19.5612ZM21.4495 16.467C21.2668 16.3614 21.2045 16.1273 21.31 15.9463C21.4156 15.7637 21.6497 15.7013 21.8323 15.8069L24.1915 17.1697C24.3742 17.2752 24.4365 17.5093 24.331 17.692C24.2254 17.8735 23.9914 17.937 23.8087 17.8298L21.4495 16.467ZM22.8243 12.1013C22.6122 12.1013 22.4415 11.929 22.4415 11.7184C22.4415 11.5079 22.6122 11.3356 22.8243 11.3356H25.5494C25.7605 11.3356 25.9322 11.5079 25.9322 11.7184C25.9322 11.929 25.76 12.1013 25.5494 12.1013H22.8243ZM18.7365 4.25579C18.6309 4.43899 18.3985 4.50243 18.2158 4.39688C18.0332 4.29133 17.9708 4.05891 18.0764 3.87625L19.4392 1.5154C19.5431 1.33383 19.7772 1.2704 19.9587 1.37594C20.1414 1.47985 20.2054 1.71391 20.0998 1.89547L18.7365 4.25579ZM6.14411 15.8063C6.32677 15.7008 6.55974 15.7631 6.66638 15.9458C6.77192 16.1273 6.70958 16.3614 6.52692 16.4664L4.16606 17.8292C3.98341 17.9364 3.75044 17.8724 3.64544 17.6914C3.53825 17.5088 3.60224 17.2741 3.78325 17.1691L6.14411 15.8063ZM9.23997 19.1795C9.34552 18.9968 9.57958 18.9345 9.7606 19.04C9.94325 19.1456 10.0056 19.3796 9.90005 19.5623L8.53724 21.9231C8.43169 22.1047 8.19763 22.1665 8.01497 22.0609C7.83231 21.9554 7.76997 21.7213 7.87552 21.5403L9.23997 19.1795ZM5.15208 11.3356C5.36317 11.3356 5.53489 11.5079 5.53489 11.7184C5.53489 11.929 5.36263 12.1013 5.15208 12.1013H2.42536C2.21427 12.1013 2.04419 11.929 2.04419 11.7184C2.04419 11.5079 2.21481 11.3356 2.42536 11.3356H5.15208ZM6.52692 6.97047C6.70958 7.07602 6.77192 7.31008 6.66638 7.49274C6.55919 7.6743 6.32677 7.7361 6.14411 7.63055L3.78325 6.26774C3.60169 6.16219 3.53825 5.92813 3.64544 5.74547C3.75099 5.56391 3.98341 5.50211 4.16606 5.60766L6.52692 6.97047ZM9.9006 3.87461C10.0061 4.05782 9.9438 4.29188 9.76114 4.39688C9.57958 4.50243 9.34552 4.44008 9.24052 4.25743L7.87606 1.89657C7.77052 1.715 7.83286 1.48094 8.01552 1.37594C8.19817 1.27094 8.43278 1.33274 8.53778 1.5154L9.9006 3.87461ZM14.0317 22.7495C15.5974 22.7495 17.0532 22.8998 18.2743 23.1574V22.6707C18.2743 22.0489 17.5224 21.6973 16.859 21.4785C15.4065 20.9995 12.5683 20.9978 11.1158 21.4785C10.454 21.6973 9.70044 22.0489 9.70044 22.6707V23.1716C10.9517 22.9048 12.4414 22.7495 14.0317 22.7495ZM19.0405 23.3417C20.5707 23.7573 22.0636 24.512 22.0636 25.6222V26.3151C22.0636 26.5262 21.893 26.6979 21.6808 26.6979H6.2945C6.08396 26.6979 5.91169 26.5256 5.91169 26.3151V25.6222C5.91169 24.5295 7.39372 23.7776 8.93481 23.3559V22.6707C8.93481 21.7809 9.6556 21.1903 10.6367 20.8338L11.0955 16.6917C10.9391 16.6064 10.7997 16.4839 10.6892 16.3291L8.65974 13.446C8.37153 13.0446 8.34966 12.5065 8.62091 12.0832L10.7647 8.74891C10.9768 8.41696 11.5817 8.28844 12.0449 8.22172C11.2886 7.245 11.3783 5.85758 12.2511 4.98477C13.2108 4.02665 14.764 4.02665 15.7221 4.98477C16.5982 5.86086 16.6846 7.25102 15.9239 8.22774C16.3843 8.2961 17.0012 8.42297 17.2107 8.74836L19.3528 12.0827C19.6257 12.5059 19.6022 13.0435 19.3156 13.4466L17.285 16.3286C17.1799 16.4791 17.0414 16.6032 16.8804 16.6912L17.3392 20.8332C18.3192 21.1881 19.04 21.782 19.04 22.6702V23.3417H19.0405ZM19.3238 24.2238C16.3986 23.2706 11.6052 23.2876 8.68161 24.2271C7.44622 24.6258 6.67731 25.1218 6.67731 25.6222V25.9323H21.2975V25.6222C21.2975 25.1185 20.5455 24.6209 19.3238 24.2238ZM11.4302 20.6057C11.8874 20.5034 12.3927 20.4307 12.9308 20.3902L13.6111 16.0743C13.6779 15.645 14.3008 15.645 14.3647 16.0787L15.045 20.3897C15.5815 20.4302 16.0868 20.5029 16.544 20.6052L16.1268 16.8306C15.243 16.7065 14.7798 15.6822 15.3054 14.9346L15.733 14.327H12.2407L12.67 14.9363C13.1939 15.6816 12.7307 16.7065 11.8486 16.8306L11.4302 20.6057ZM13.7074 20.3547H14.2668L13.9879 18.5812L13.7074 20.3547ZM15.1014 8.90805C14.7667 9.07868 14.3883 9.17329 13.9885 9.17329C13.5838 9.17329 13.201 9.0754 12.8647 8.90204C12.4381 8.93321 12.0536 8.98243 11.7611 9.05079C11.5533 9.10055 11.4215 9.13938 11.4078 9.16071L9.26567 12.495C9.16505 12.6514 9.17271 12.8483 9.27989 12.997L11.3154 15.8884C11.545 16.2121 12.0515 16.0978 12.1198 15.7101C12.14 15.5952 12.1165 15.476 12.0454 15.3754L10.3293 12.9385C10.2408 12.816 10.2304 12.6438 10.3184 12.5092L11.4483 10.7483C11.6621 10.3917 12.1658 10.5558 12.1658 10.9342V13.562H15.8101V10.9342H15.8118C15.8118 10.5558 16.3094 10.407 16.514 10.7281L17.6531 12.4999C17.6969 12.5643 17.7201 12.6405 17.7195 12.7184C17.7189 12.7962 17.6946 12.8721 17.6498 12.9358L15.9211 15.3896C15.7166 15.6795 15.966 16.1416 16.374 16.0716C16.4855 16.0513 16.5911 15.9895 16.6605 15.8884L18.696 12.997C18.8043 12.8466 18.8125 12.6531 18.7102 12.495L16.5681 9.16071C16.5572 9.1454 16.427 9.10821 16.2148 9.05844C15.9211 8.99008 15.5323 8.93922 15.1014 8.90805ZM15.1818 5.52563C14.5228 4.86665 13.4531 4.86665 12.793 5.52563C12.134 6.18461 12.134 7.2543 12.793 7.91438C13.4536 8.57336 14.5228 8.57336 15.1818 7.91438C15.8408 7.25375 15.8408 6.18407 15.1818 5.52563ZM16.5758 13.1338L16.8765 12.7045L16.5758 12.2363V13.1338ZM11.4012 13.1338V12.2363L11.0988 12.7045L11.4012 13.1338Z" fill="#2BB19C"/>
</g>
</g>
</svg>
