<svg width="41" height="41" viewBox="0 0 41 41" fill="none" xmlns="http://www.w3.org/2000/svg">
<g id="vuesax/bold/medal">
<g id="medal">
<path id="Vector" d="M20.6416 25.9626C26.8548 25.9626 31.8916 21.1123 31.8916 15.1292C31.8916 9.14615 26.8548 4.2959 20.6416 4.2959C14.4284 4.2959 9.3916 9.14615 9.3916 15.1292C9.3916 21.1123 14.4284 25.9626 20.6416 25.9626Z" fill="#2BB19C"/>
<path id="Vector_2" d="M26.9583 26.9794C27.5083 26.696 28.1416 27.1127 28.1416 27.7294V35.8127C28.1416 37.3127 27.0916 38.046 25.7916 37.4294L21.3249 35.3127C20.9416 35.146 20.3416 35.146 19.9583 35.3127L15.4916 37.4294C14.1916 38.0294 13.1416 37.296 13.1416 35.796L13.1749 27.7294C13.1749 27.1127 13.8249 26.7127 14.3583 26.9794C16.2416 27.9294 18.3749 28.4627 20.6416 28.4627C22.9083 28.4627 25.0583 27.9294 26.9583 26.9794Z" fill="#2BB19C"/>
</g>
</g>
</svg>
