<svg width="28" height="28" viewBox="0 0 28 28" fill="none" xmlns="http://www.w3.org/2000/svg">
<g id="Frame" clip-path="url(#clip0_164_800)">
<g id="Group">
<path id="Vector" d="M13.9613 6.58172H13.9644C15.3505 6.58082 16.4737 5.45659 16.4728 4.07026C16.472 2.68409 15.3477 1.56091 13.9613 1.56181H13.9602C12.5741 1.56225 11.4507 2.68604 11.4509 4.07243C11.4512 5.45854 12.5752 6.58216 13.9613 6.58172ZM13.9624 2.45424H13.9633C14.8566 2.45401 15.581 3.17805 15.5813 4.07132C15.5815 4.96464 14.8574 5.68907 13.9642 5.68929H13.9624C13.962 5.68929 13.9618 5.68103 13.9613 5.6812C13.0741 5.67557 12.3577 4.9546 12.358 4.06719C12.3582 3.17978 13.0753 2.45926 13.9624 2.45424ZM19.7954 4.96419H19.8297C21.2005 4.95504 22.3043 3.83622 22.295 2.46539C22.2857 1.09462 21.167 -0.00914603 19.796 5.71358e-05H19.7949C18.4243 0.000280243 17.3131 1.11169 17.3131 2.48235C17.3133 3.85323 18.4248 4.96441 19.7954 4.96419ZM19.7974 0.892486H19.798C20.0089 0.892282 20.2177 0.933624 20.4125 1.01415C20.6074 1.09467 20.7845 1.21281 20.9337 1.36179C21.0828 1.51086 21.2011 1.68787 21.2818 1.88269C21.3624 2.07751 21.4039 2.28632 21.4038 2.49718C21.4049 2.70478 21.3646 2.91051 21.2854 3.10242C21.2062 3.29433 21.0897 3.46858 20.9426 3.61506C20.7955 3.76157 20.6208 3.87738 20.4286 3.95579C20.2364 4.03419 20.0305 4.07361 19.8229 4.07176H19.7961C18.9183 4.07154 18.2069 3.35949 18.2071 2.48168C18.2073 1.60364 18.9194 0.892262 19.7972 0.892486H19.7974Z" fill="#2BB19C"/>
<path id="Vector_2" d="M4.58326 12.494H9.95724V13.6695C9.9608 13.7889 10.0111 13.9021 10.0973 13.9848C10.1836 14.0675 10.2988 14.113 10.4183 14.1115H17.5065C17.5639 14.1116 17.6207 14.1002 17.6735 14.0778C17.7263 14.0554 17.7741 14.0225 17.8139 13.9812C17.8538 13.94 17.8849 13.8911 17.9054 13.8375C17.9259 13.7839 17.9354 13.7268 17.9333 13.6695V12.494H23.3631C23.4194 12.4962 23.4756 12.4867 23.5282 12.4662C23.5807 12.4457 23.6285 12.4146 23.6685 12.3748C23.7086 12.3351 23.74 12.2876 23.7609 12.2352C23.7818 12.1828 23.7916 12.1267 23.7899 12.0703V8.79947C23.7922 8.34696 23.705 7.89846 23.5331 7.47986C23.3612 7.06125 23.1082 6.68082 22.7885 6.36052C22.4688 6.04021 22.0888 5.7864 21.6704 5.61374C21.252 5.44109 20.8036 5.35301 20.351 5.35459H19.3C18.6378 5.35471 17.9891 5.54224 17.429 5.8955C16.8689 6.24875 16.4201 6.7533 16.1347 7.35084C15.6315 7.07136 15.0665 6.922 14.491 6.91634H13.4387C12.8647 6.92209 12.3011 7.07048 11.7987 7.34816C11.5162 6.75134 11.0699 6.24708 10.5118 5.89413C9.95369 5.54118 9.30681 5.35407 8.64648 5.35459H7.60346C7.15114 5.35194 6.70278 5.43888 6.28423 5.61037C5.86567 5.78186 5.48521 6.03452 5.16479 6.35377C4.84432 6.67301 4.59024 7.05253 4.41717 7.47045C4.24411 7.88838 4.1555 8.33643 4.15645 8.78876V12.0702C4.15468 12.1266 4.16454 12.1828 4.18543 12.2352C4.20631 12.2876 4.23776 12.3351 4.27782 12.3748C4.31783 12.4146 4.36559 12.4457 4.41814 12.4662C4.47068 12.4867 4.52689 12.4962 4.58326 12.494ZM19.3001 6.24701H20.3467C20.6824 6.24486 21.0151 6.30941 21.3256 6.4369C21.6361 6.56439 21.9182 6.75229 22.1555 6.98969C22.3928 7.22709 22.5806 7.50926 22.7079 7.81982C22.8353 8.13038 22.8997 8.46315 22.8974 8.7988V11.6016H17.9333V10.3987C17.9367 9.94394 17.85 9.49301 17.6781 9.07198C17.5062 8.65095 17.2525 8.26818 16.9317 7.94581C16.9093 7.92338 16.8912 7.91597 16.8683 7.89438C17.2668 6.90044 18.2294 6.24852 19.3001 6.24701ZM13.4394 7.80876H14.4902C14.8273 7.80914 15.161 7.87671 15.4716 8.00753C15.7823 8.13836 16.0638 8.3298 16.2996 8.57067C16.5376 8.81131 16.7256 9.09666 16.8528 9.41028C16.9801 9.72391 17.044 10.0596 17.0409 10.398V13.2191H10.8497V10.3887C10.8581 8.96357 12.0142 7.81205 13.4394 7.80876ZM5.04888 8.78965C5.04782 8.45437 5.11329 8.12221 5.2415 7.81241C5.36971 7.5026 5.55811 7.22131 5.79579 6.98483C6.03346 6.74834 6.3157 6.56136 6.62614 6.43471C6.93659 6.30807 7.26908 6.24427 7.60435 6.24701H8.64537C9.70903 6.24679 10.6643 6.89871 11.0512 7.88964C10.7078 8.20841 10.4335 8.59431 10.2453 9.02343C10.0571 9.45255 9.95907 9.91575 9.95724 10.3843V11.6016H5.04888V8.78965ZM8.12642 4.96415H8.1277C9.50271 4.96415 10.6002 3.88174 10.6265 2.48487V2.48576C10.6233 1.10886 9.50366 -0.00455966 8.12642 1.40406e-05H8.12531C6.74639 -0.000209067 5.62818 1.11728 5.62818 2.49625C5.62893 2.82269 5.69428 3.14575 5.82047 3.44681C5.94666 3.74787 6.13119 4.02098 6.36342 4.25039C6.59565 4.47981 6.871 4.66098 7.17358 4.78349C7.47616 4.90599 7.8 4.96739 8.12642 4.96415ZM6.99036 1.35784C7.13962 1.20875 7.31703 1.09082 7.51229 1.01092C7.70755 0.931019 7.91674 0.890746 8.1277 0.892443H8.1286C8.33907 0.890922 8.54775 0.931176 8.74256 1.01087C8.93737 1.09057 9.11443 1.20812 9.26349 1.35673C9.41256 1.50238 9.53099 1.67638 9.61182 1.86848C9.69264 2.06059 9.73423 2.26692 9.73413 2.47533C9.71494 3.37892 9.01015 4.07172 8.12776 4.07172H8.12664C7.91648 4.07307 7.70812 4.03288 7.51353 3.95346C7.31894 3.87404 7.14196 3.75696 6.99276 3.60894C6.84354 3.46098 6.72503 3.28498 6.64405 3.09107C6.56307 2.89716 6.52122 2.68915 6.52089 2.47901C6.52022 2.27024 6.56143 2.06345 6.64206 1.87088C6.7227 1.6783 6.84113 1.50385 6.99036 1.35784ZM19.1122 18.4761C19.0705 18.4353 19.0212 18.4032 18.9671 18.3817C18.9129 18.3602 18.855 18.3496 18.7967 18.3506H18.7964L16.3136 18.3482C16.2553 18.348 16.1975 18.3592 16.1435 18.3814C16.0895 18.4035 16.0404 18.4361 15.9991 18.4772C15.9577 18.5183 15.9248 18.5672 15.9023 18.621C15.8799 18.6749 15.8682 18.7326 15.8681 18.7909L15.8602 22.7604C15.8583 23.8023 15.0164 24.6475 13.9744 24.6534H13.9721C12.9335 24.6477 12.0953 23.8028 12.0979 22.7641L12.1025 20.5383C12.104 20.5226 12.1046 20.5069 12.1046 20.4912C12.1046 20.478 12.1038 20.4642 12.1027 20.4509L12.1057 18.7981C12.1059 18.7394 12.0945 18.6812 12.0722 18.627C12.0499 18.5727 12.017 18.5233 11.9756 18.4818C11.9342 18.4402 11.8849 18.4072 11.8306 18.3847C11.7764 18.3622 11.7182 18.3506 11.6595 18.3506H11.6584L9.17592 18.358C9.05809 18.3584 8.94523 18.4055 8.86208 18.489C8.77893 18.5724 8.73226 18.6855 8.73232 18.8033L8.73009 20.4965V20.4976L8.72452 22.765C8.7231 23.4527 8.85745 24.1338 9.11986 24.7694C9.38227 25.405 9.76757 25.9825 10.2537 26.4689C10.7398 26.9553 11.3171 27.3409 11.9526 27.6036C12.5881 27.8663 13.2691 28.001 13.9568 28H13.9731C16.8694 28 19.2307 25.6375 19.2373 22.741L19.2401 20.6775C19.2435 20.6472 19.2435 20.6166 19.2401 20.5862L19.2427 18.7891C19.2428 18.7309 19.2314 18.6732 19.209 18.6195C19.1865 18.5657 19.1536 18.517 19.1122 18.4761H19.1122ZM18.3499 19.2327L18.3486 20.1882L16.7577 20.1912L16.7596 19.2347L18.3499 19.2327ZM11.2124 19.2445L11.2109 20.0459L9.62085 20.0489L9.62252 19.2491L11.2124 19.2445ZM13.9707 27.1075H13.9572C13.3866 27.1087 12.8213 26.9972 12.2939 26.7793C11.7665 26.5614 11.2873 26.2415 10.8839 25.8379C10.4804 25.4344 10.1607 24.9551 9.94299 24.4276C9.7253 23.9001 9.61394 23.3348 9.61533 22.7641L9.61901 20.9402L11.2091 20.9379L11.2054 22.7581C11.1995 24.2919 12.4381 25.5401 13.972 25.5458H13.9755C15.5091 25.5381 16.7493 24.2943 16.7526 22.7604L16.7559 21.0882L18.3472 21.0825L18.3448 22.7404C18.3359 25.1512 16.3817 27.1023 13.9707 27.1075ZM10.2511 17.4024C10.4989 17.3976 10.6973 17.1954 10.6973 16.9475L10.7019 15.394C10.7021 15.3355 10.6908 15.2775 10.6685 15.2234C10.6462 15.1693 10.6135 15.1201 10.5722 15.0787C10.5309 15.0373 10.4818 15.0044 10.4278 14.982C10.3737 14.9596 10.3158 14.9481 10.2573 14.9482H10.2557C10.1976 14.9475 10.1399 14.9582 10.086 14.9799C10.0321 15.0015 9.98302 15.0336 9.94156 15.0744C9.90005 15.1151 9.86701 15.1636 9.84434 15.2171C9.82167 15.2707 9.80982 15.3282 9.80949 15.3863L9.80474 16.9481C9.80341 17.1958 10.0019 17.3987 10.2496 17.4024H10.2511Z" fill="#2BB19C"/>
<path id="Vector_3" d="M12.2088 18.23L13.3076 17.1312C13.4819 16.9569 13.4819 16.6745 13.3076 16.5002C13.1334 16.3259 12.8507 16.3259 12.6766 16.5002L11.5777 17.599C11.4941 17.6827 11.4471 17.7962 11.4471 17.9145C11.4471 18.0328 11.4941 18.1463 11.5777 18.23C11.6614 18.3137 11.7749 18.3607 11.8932 18.3607C12.0116 18.3607 12.1251 18.3137 12.2088 18.23ZM9.19381 17.9458C9.36812 17.7718 9.36812 17.4892 9.19381 17.3149L8.09507 16.2161C8.0111 16.1339 7.89809 16.0882 7.7806 16.0888C7.66311 16.0895 7.55062 16.1365 7.46758 16.2196C7.38452 16.3027 7.33757 16.4152 7.33692 16.5326C7.33627 16.6501 7.38198 16.7631 7.46412 16.8471L8.56287 17.9459C8.60429 17.9873 8.65347 18.0202 8.7076 18.0426C8.76173 18.0651 8.81975 18.0766 8.87834 18.0766C8.93693 18.0766 8.99495 18.0651 9.04908 18.0426C9.10321 18.0202 9.15239 17.9873 9.19381 17.9459V17.9458ZM17.6492 17.3467C17.7071 17.348 17.7647 17.3377 17.8186 17.3165C17.8725 17.2954 17.9216 17.2637 17.9631 17.2233C18.0046 17.183 18.0377 17.1348 18.0605 17.0815C18.0832 17.0283 18.0951 16.971 18.0955 16.9131L18.0981 15.3755C18.0977 15.318 18.0859 15.261 18.0631 15.2082C18.0404 15.1553 18.0073 15.1075 17.9657 15.0676C17.9242 15.0278 17.875 14.9967 17.8212 14.9762C17.7674 14.9557 17.7101 14.9462 17.6525 14.9483H17.6516C17.5939 14.9468 17.5363 14.9568 17.4825 14.9777C17.4286 14.9987 17.3795 15.0302 17.3379 15.0704C17.2964 15.1106 17.2632 15.1586 17.2405 15.2118C17.2177 15.2649 17.2058 15.3221 17.2054 15.3799L17.203 16.9185C17.2032 16.9762 17.215 17.0332 17.2377 17.0862C17.2604 17.1392 17.2935 17.1871 17.3351 17.227C17.3767 17.2669 17.4258 17.2981 17.4797 17.3187C17.5335 17.3392 17.591 17.3488 17.6486 17.3467H17.6492ZM20.6017 16.9808C20.6838 16.8968 20.7295 16.7838 20.7288 16.6664C20.7282 16.5489 20.6812 16.4365 20.5982 16.3534C20.5151 16.2703 20.4026 16.2234 20.2852 16.2228C20.1677 16.2221 20.0547 16.2678 19.9707 16.3499L18.8696 17.451C18.828 17.4924 18.795 17.5416 18.7724 17.5958C18.7498 17.65 18.7382 17.7081 18.7381 17.7668C18.738 17.8255 18.7495 17.8837 18.7719 17.9379C18.7944 17.9922 18.8273 18.0415 18.8688 18.083C18.9103 18.1245 18.9596 18.1574 19.0139 18.1799C19.0681 18.2023 19.1263 18.2138 19.185 18.2137C19.2437 18.2137 19.3018 18.202 19.356 18.1794C19.4102 18.1569 19.4594 18.1238 19.5008 18.0822L20.6017 16.9808ZM16.3091 18.0674C16.3973 18.0674 16.4836 18.0412 16.5569 17.9922C16.6303 17.9432 16.6875 17.8735 16.7213 17.792C16.755 17.7104 16.7639 17.6207 16.7466 17.5342C16.7294 17.4476 16.687 17.3681 16.6246 17.3057L15.5258 16.2069C15.4419 16.1241 15.3287 16.0778 15.2108 16.0781C15.0929 16.0785 14.9799 16.1255 14.8966 16.2089C14.8133 16.2923 14.7663 16.4052 14.7659 16.523C14.7655 16.6409 14.8118 16.7541 14.8946 16.8379L15.9936 17.9367C16.035 17.9783 16.0841 18.0112 16.1383 18.0336C16.1924 18.0561 16.2505 18.0676 16.3091 18.0674Z" fill="#2BB19C"/>
</g>
</g>
<defs>
<clipPath id="clip0_164_800">
<rect width="28" height="28" fill="white"/>
</clipPath>
</defs>
</svg>
