<svg width="130" height="37" viewBox="0 0 130 37" fill="none" xmlns="http://www.w3.org/2000/svg">
<g id="Group">
<path id="Vector" d="M18.3352 0C8.20969 0 0 8.20968 0 18.3418C0 28.474 8.20969 36.6804 18.3352 36.6804C28.4607 36.6804 36.677 28.4707 36.677 18.3418C36.677 8.21301 28.4674 0 18.3352 0ZM18.3952 5.01777L21.9902 11.6282L18.3952 10.5953L14.7534 11.6415L18.3952 5.01777ZM14.0671 13.4673L18.3952 12.2246L22.6699 13.454L25.7785 19.1681L18.3985 17.0524L10.9251 19.1948L14.0704 13.4673H14.0671ZM18.3352 24.0993L6.91026 27.068L10.2355 21.014L18.3952 18.675L26.4549 20.9873L29.7634 27.068L18.3352 24.096V24.0993Z" fill="#242827"/>
<g id="Group_2">
<g id="Group_3">
<path id="Vector_2" d="M47.9787 2.65576C46.0295 2.65576 44.0804 2.67242 42.1279 2.67242V15.0802H44.4669V11.4319H47.9787C54.0593 11.4319 54.0393 2.65909 47.9787 2.65909V2.65576ZM47.9787 9.28615H44.4669V4.8881H47.9787C50.9573 4.8881 50.974 9.28615 47.9787 9.28615Z" fill="#242827"/>
<path id="Vector_3" d="M59.68 7.79684L56.5248 2.67578H53.7427V2.7824L58.5106 9.95921V15.0803H60.8495V9.95921L65.794 2.7824V2.67578H62.9752L59.68 7.79684Z" fill="#242827"/>
<path id="Vector_4" d="M75.2432 10.6856C77.5988 10.2058 78.3785 8.4866 78.3785 6.78735C78.3785 4.64164 76.8359 2.69584 73.9138 2.67585C71.9447 2.67585 69.9789 2.65918 68.0098 2.65918V15.0837H70.3487V10.9388H72.6011L76.2161 15.0837H78.9982V14.9237L75.2399 10.6889L75.2432 10.6856ZM70.3487 8.82311V4.85488H73.9138C75.3832 4.85488 76.0395 5.84777 76.0395 6.84066C76.0395 7.83355 75.4032 8.82644 73.9138 8.82644H70.3487V8.82311Z" fill="#242827"/>
<path id="Vector_5" d="M88.7272 2.67236H86.175L80.6108 15.0802H83.1464L84.2093 12.7412H90.6964L91.7426 15.0802H94.2948L88.7306 2.67236H88.7272ZM85.1455 10.5622L87.4511 5.28121L89.7534 10.5622H85.1455Z" fill="#242827"/>
<path id="Vector_6" d="M103.021 8.02668L99.1392 2.69238H96.447V15.0969H98.786V6.07755L102.738 11.4818H103.197L107.239 6.09421V15.0969H109.578V2.69238H106.902L103.021 8.02668Z" fill="#242827"/>
<path id="Vector_7" d="M115.472 2.67578H113.15V15.0803H115.472V2.67578Z" fill="#242827"/>
<path id="Vector_8" d="M123.795 2.67236H118.92V15.0802H123.795C128.136 15.0802 130.052 11.9083 129.999 8.77299C129.946 5.70435 128.05 2.6757 123.795 2.6757V2.67236ZM123.795 12.8312H121.243V4.89138H123.795C126.487 4.89138 127.623 6.82386 127.677 8.75633C127.73 10.7754 126.614 12.8345 123.795 12.8345V12.8312Z" fill="#242827"/>
</g>
<g id="Group_4">
<path id="Vector_9" d="M49.4314 21.4238H47.6921L42.1279 33.8283H43.8138L45.02 31.0995H52.1102L53.333 33.8283H54.9989L49.4347 21.4238H49.4314ZM45.6197 29.6802L48.5617 22.9798L51.5038 29.6802H45.6231H45.6197Z" fill="#242827"/>
<path id="Vector_10" d="M57.6509 33.8449H59.1935V28.6539H65.9639V27.2178H59.1935V22.8931H66.267V21.4204H57.6509V33.8449Z" fill="#242827"/>
<path id="Vector_11" d="M75.7297 29.2369C76.9358 29.1403 77.8321 28.7305 78.4218 28.0041C79.0149 27.2778 79.3014 26.4049 79.2914 25.3886C79.2914 24.3025 78.9216 23.3695 78.1853 22.5899C77.4456 21.8102 76.416 21.4204 75.0933 21.4204H69.4558V33.8249H70.9985V29.3602H74.0138L77.8787 33.8249H79.8279L75.7363 29.2369H75.7297ZM70.9951 27.9775V22.8031H75.09C75.9296 22.8031 76.5826 23.0697 77.0558 23.6028C77.5289 24.1325 77.7588 24.7423 77.7455 25.4286C77.7455 26.175 77.5122 26.7847 77.0458 27.2611C76.5793 27.7409 75.9029 27.9808 75.0167 27.9808H70.9918L70.9951 27.9775Z" fill="#242827"/>
<path id="Vector_12" d="M84.3227 21.4204H82.78V33.8249H84.3227V21.4204Z" fill="#242827"/>
<path id="Vector_13" d="M94.0516 32.5524C92.4689 32.5524 91.2561 32.0826 90.4198 31.1431C89.5802 30.2035 89.1504 29.0473 89.1271 27.6779C89.1138 26.2952 89.5369 25.1191 90.3932 24.1495C91.2495 23.1799 92.4689 22.6968 94.0516 22.6968C95.4343 22.6968 96.5904 23.1566 97.5267 24.0795L98.5896 23.0866C97.3268 21.8472 95.8141 21.2241 94.0516 21.2241C92.6589 21.2241 91.4594 21.5406 90.4532 22.1737C89.4503 22.8068 88.7173 23.5997 88.2541 24.556C87.7943 25.5122 87.5678 26.5584 87.5811 27.6912C87.5944 29.4638 88.1575 30.9598 89.2737 32.1826C90.3899 33.4054 91.9825 34.0184 94.0516 34.0184C95.8841 34.0184 97.4201 33.4054 98.6595 32.1759L97.58 31.1131C96.6238 32.0693 95.4476 32.5491 94.0516 32.5491V32.5524Z" fill="#242827"/>
<path id="Vector_14" d="M107.486 21.4238H105.746L100.182 33.8283H101.868L103.074 31.0995H110.164L111.387 33.8283H113.053L107.489 21.4238H107.486ZM103.674 29.6802L106.616 22.9798L109.558 29.6802H103.674Z" fill="#242827"/>
</g>
</g>
</g>
</svg>
