<svg width="200" height="57" viewBox="0 0 200 57" fill="none" xmlns="http://www.w3.org/2000/svg">
<g id="Group">
<path id="Vector" d="M28.208 0C12.6303 0 0 12.6303 0 28.2182C0 43.8062 12.6303 56.4313 28.208 56.4313C43.7857 56.4313 56.4262 43.801 56.4262 28.2182C56.4262 12.6354 43.7959 0 28.208 0ZM28.3002 7.71965L33.8311 17.8895L28.3002 16.3004L22.6976 17.91L28.3002 7.71965ZM21.6417 20.719L28.3002 18.807L34.8768 20.6985L39.6593 29.4895L28.3054 26.2345L16.8079 29.5305L21.6468 20.719H21.6417ZM28.208 37.0758L10.6312 41.643L15.7469 32.3292L28.3002 28.7308L40.6999 32.2882L45.7899 41.643L28.208 37.0707V37.0758Z" fill="#2BB19C"/>
<g id="Group_2">
<g id="Group_3">
<path id="Vector_2" d="M73.8131 4.08536C70.8145 4.08536 67.8158 4.11098 64.812 4.11098V23.1999H68.4104V17.587H73.8131C83.168 17.587 83.1372 4.09047 73.8131 4.09047V4.08536ZM73.8131 14.286H68.4104V7.51972H73.8131C78.3957 7.51972 78.4214 14.286 73.8131 14.286Z" fill="white"/>
<path id="Vector_3" d="M91.8155 11.9947L86.9613 4.11612H82.6812V4.28015L90.0164 15.3214V23.1999H93.6147V15.3214L101.222 4.28015V4.11612H96.8851L91.8155 11.9947Z" fill="white"/>
<path id="Vector_4" d="M115.759 16.4389C119.383 15.7008 120.582 13.0558 120.582 10.4415C120.582 7.14045 118.209 4.14691 113.714 4.11615C110.684 4.11615 107.66 4.09052 104.63 4.09052V23.2051H108.229V16.8284H111.694L117.256 23.2051H121.536V22.9591L115.754 16.444L115.759 16.4389ZM108.229 13.5735V7.46852H113.714C115.974 7.46852 116.984 8.99604 116.984 10.5236C116.984 12.0511 116.005 13.5786 113.714 13.5786H108.229V13.5735Z" fill="white"/>
<path id="Vector_5" d="M136.503 4.11099H132.577L124.017 23.1999H127.917L129.553 19.6015H139.533L141.142 23.1999H145.069L136.508 4.11099H136.503ZM130.993 16.2492L134.54 8.1246L138.082 16.2492H130.993Z" fill="white"/>
<path id="Vector_6" d="M158.493 12.3484L152.522 4.14175H148.38V23.2256H151.978V9.3497L158.058 17.664H158.765L164.983 9.37534V23.2256H168.581V4.14175H164.465L158.493 12.3484Z" fill="white"/>
<path id="Vector_7" d="M177.649 4.11612H174.076V23.1999H177.649V4.11612Z" fill="white"/>
<path id="Vector_8" d="M190.454 4.11099H182.955V23.1999H190.454C197.133 23.1999 200.08 18.3201 199.998 13.4966C199.916 8.77559 197 4.11612 190.454 4.11612V4.11099ZM190.454 19.7399H186.527V7.52486H190.454C194.596 7.52486 196.343 10.4979 196.426 13.4709C196.508 16.5773 194.79 19.7451 190.454 19.7451V19.7399Z" fill="white"/>
</g>
<g id="Group_4">
<path id="Vector_9" d="M76.0481 32.9597H73.3723L64.812 52.0435H67.4057L69.2613 47.8454H80.1693L82.0505 52.0435H84.6135L76.0532 32.9597H76.0481ZM70.184 45.6617L74.7102 35.3535L79.2364 45.6617H70.1891H70.184Z" fill="white"/>
<path id="Vector_10" d="M88.6938 52.0692H91.0672V44.083H101.483V41.8737H91.0672V35.2202H101.949V32.9546H88.6938V52.0692Z" fill="white"/>
<path id="Vector_11" d="M116.507 44.98C118.363 44.8314 119.742 44.2009 120.649 43.0834C121.561 41.966 122.002 40.623 121.987 39.0596C121.987 37.3885 121.418 35.9532 120.285 34.7538C119.147 33.5543 117.563 32.9546 115.528 32.9546H106.855V52.0384H109.228V45.1697H113.867L119.813 52.0384H122.812L116.517 44.98H116.507ZM109.223 43.0424V35.0818H115.523C116.815 35.0818 117.819 35.4919 118.547 36.3121C119.275 37.1271 119.629 38.0651 119.608 39.1211C119.608 40.2693 119.249 41.2073 118.532 41.9403C117.814 42.6785 116.774 43.0475 115.41 43.0475H109.218L109.223 43.0424Z" fill="white"/>
<path id="Vector_12" d="M129.727 32.9546H127.354V52.0384H129.727V32.9546Z" fill="white"/>
<path id="Vector_13" d="M144.695 50.0803C142.26 50.0803 140.394 49.3575 139.107 47.912C137.816 46.4665 137.154 44.6878 137.119 42.5811C137.098 40.4538 137.749 38.6443 139.066 37.1527C140.384 35.661 142.26 34.9178 144.695 34.9178C146.822 34.9178 148.601 35.6252 150.041 37.0451L151.676 35.5175C149.733 33.6107 147.406 32.6521 144.695 32.6521C142.552 32.6521 140.707 33.1391 139.159 34.113C137.616 35.0869 136.488 36.3069 135.776 37.7781C135.068 39.2492 134.72 40.8587 134.74 42.6016C134.761 45.3286 135.627 47.6301 137.344 49.5113C139.061 51.3925 141.511 52.3357 144.695 52.3357C147.514 52.3357 149.877 51.3925 151.784 49.5011L150.123 47.8659C148.652 49.337 146.842 50.0752 144.695 50.0752V50.0803Z" fill="white"/>
<path id="Vector_14" d="M165.362 32.9597H162.686L154.126 52.0435H156.72L158.575 47.8454H169.483L171.364 52.0435H173.927L165.367 32.9597H165.362ZM159.498 45.6617L164.024 35.3535L168.55 45.6617H159.498Z" fill="white"/>
</g>
</g>
</g>
</svg>
