<svg width="28" height="28" viewBox="0 0 28 28" fill="none" xmlns="http://www.w3.org/2000/svg">
<g id="Frame" clip-path="url(#clip0_164_809)">
<g id="Group">
<path id="Vector" d="M23.8001 4.6667C23.984 4.6667 24.166 4.63049 24.3359 4.56013C24.5058 4.48977 24.6601 4.38665 24.7901 4.25665C24.9201 4.12665 25.0232 3.97231 25.0936 3.80246C25.1639 3.6326 25.2001 3.45055 25.2001 3.2667C25.2001 3.08285 25.1639 2.9008 25.0936 2.73094C25.0232 2.56109 24.9201 2.40675 24.7901 2.27675C24.6601 2.14675 24.5058 2.04362 24.3359 1.97327C24.166 1.90291 23.984 1.8667 23.8001 1.8667C23.4288 1.8667 23.0727 2.0142 22.8102 2.27675C22.5476 2.5393 22.4001 2.8954 22.4001 3.2667C22.4001 3.638 22.5476 3.9941 22.8102 4.25665C23.0727 4.5192 23.4288 4.6667 23.8001 4.6667ZM23.8001 2.80003C23.9239 2.80003 24.0426 2.8492 24.1301 2.93672C24.2176 3.02423 24.2668 3.14293 24.2668 3.2667C24.2668 3.39047 24.2176 3.50917 24.1301 3.59668C24.0426 3.6842 23.9239 3.73337 23.8001 3.73337C23.6764 3.73337 23.5577 3.6842 23.4702 3.59668C23.3826 3.50917 23.3335 3.39047 23.3335 3.2667C23.3335 3.14293 23.3826 3.02423 23.4702 2.93672C23.5577 2.8492 23.6764 2.80003 23.8001 2.80003ZM23.8001 14.4667C24.1714 14.4667 24.5275 14.3192 24.7901 14.0567C25.0526 13.7941 25.2001 13.438 25.2001 13.0667C25.2001 12.6954 25.0526 12.3393 24.7901 12.0767C24.5275 11.8142 24.1714 11.6667 23.8001 11.6667C23.4288 11.6667 23.0727 11.8142 22.8102 12.0767C22.5476 12.3393 22.4001 12.6954 22.4001 13.0667C22.4001 13.438 22.5476 13.7941 22.8102 14.0567C23.0727 14.3192 23.4288 14.4667 23.8001 14.4667ZM23.8001 12.6C23.9239 12.6 24.0426 12.6492 24.1301 12.7367C24.2176 12.8242 24.2668 12.9429 24.2668 13.0667C24.2668 13.1905 24.2176 13.3092 24.1301 13.3967C24.0426 13.4842 23.9239 13.5334 23.8001 13.5334C23.6764 13.5334 23.5577 13.4842 23.4702 13.3967C23.3826 13.3092 23.3335 13.1905 23.3335 13.0667C23.3335 12.9429 23.3826 12.8242 23.4702 12.7367C23.5577 12.6492 23.6764 12.6 23.8001 12.6ZM23.8001 24.2667C24.1714 24.2667 24.5275 24.1192 24.7901 23.8566C25.0526 23.5941 25.2001 23.238 25.2001 22.8667C25.2001 22.4954 25.0526 22.1393 24.7901 21.8768C24.5275 21.6142 24.1714 21.4667 23.8001 21.4667C23.4288 21.4667 23.0727 21.6142 22.8102 21.8768C22.5476 22.1393 22.4001 22.4954 22.4001 22.8667C22.4001 23.238 22.5476 23.5941 22.8102 23.8566C23.0727 24.1192 23.4288 24.2667 23.8001 24.2667ZM23.8001 22.4C23.9239 22.4 24.0426 22.4492 24.1301 22.5367C24.2176 22.6242 24.2668 22.7429 24.2668 22.8667C24.2668 22.9905 24.2176 23.1092 24.1301 23.1967C24.0426 23.2842 23.9239 23.3334 23.8001 23.3334C23.6764 23.3334 23.5577 23.2842 23.4702 23.1967C23.3826 23.1092 23.3335 22.9905 23.3335 22.8667C23.3335 22.7429 23.3826 22.6242 23.4702 22.5367C23.5577 22.4492 23.6764 22.4 23.8001 22.4Z" fill="#2BB19C"/>
<path id="Vector_2" d="M18.2001 4.66667H19.6276C19.7469 5.73348 20.2701 6.71413 21.0898 7.40722C21.9096 8.10031 22.9635 8.45323 24.0353 8.3935C25.1071 8.33377 26.1154 7.86593 26.853 7.08605C27.5906 6.30617 28.0016 5.27346 28.0016 4.20001C28.0016 3.12655 27.5906 2.09384 26.853 1.31396C26.1154 0.534085 25.1071 0.0662406 24.0353 0.00651181C22.9635 -0.053217 21.9096 0.299704 21.0898 0.992794C20.2701 1.68588 19.7469 2.66653 19.6276 3.73334H18.2001C17.8288 3.73334 17.4727 3.88084 17.2102 4.14339C16.9476 4.40594 16.8001 4.76204 16.8001 5.13334V13.5333H15.4001V7.46667C15.4001 6.9716 15.2034 6.49681 14.8534 6.14674C14.5033 5.79667 14.0285 5.60001 13.5334 5.60001C13.0384 5.60001 12.5636 5.79667 12.2135 6.14674C11.8634 6.49681 11.6668 6.9716 11.6668 7.46667V8.08874L6.44011 10.2667H3.73344C2.78762 10.2723 1.87919 10.6367 1.19167 11.2862C0.504153 11.9358 0.0888095 12.8221 0.0295554 13.7661C-0.0296988 14.71 0.271553 15.6413 0.872448 16.3717C1.47334 17.1022 2.32908 17.5773 3.26678 17.7011V20.5333C3.26678 21.0284 3.46344 21.5032 3.81351 21.8533C4.16358 22.2033 4.63837 22.4 5.13344 22.4C5.62851 22.4 6.10331 22.2033 6.45338 21.8533C6.80344 21.5032 7.00011 21.0284 7.00011 20.5333V17.9667L11.6668 19.9113V20.5333C11.6668 21.0284 11.8634 21.5032 12.2135 21.8533C12.5636 22.2033 13.0384 22.4 13.5334 22.4C14.0285 22.4 14.5033 22.2033 14.8534 21.8533C15.2034 21.5032 15.4001 21.0284 15.4001 20.5333V14.4667H16.8001V22.8667C16.8001 23.238 16.9476 23.5941 17.2102 23.8566C17.4727 24.1192 17.8288 24.2667 18.2001 24.2667H19.6276C19.7469 25.3335 20.2701 26.3141 21.0898 27.0072C21.9096 27.7003 22.9635 28.0532 24.0353 27.9935C25.1071 27.9338 26.1154 27.4659 26.853 26.686C27.5906 25.9062 28.0016 24.8735 28.0016 23.8C28.0016 22.7266 27.5906 21.6938 26.853 20.914C26.1154 20.1341 25.1071 19.6662 24.0353 19.6065C22.9635 19.5468 21.9096 19.8997 21.0898 20.5928C20.2701 21.2859 19.7469 22.2665 19.6276 23.3333H18.2001C18.0763 23.3333 17.9576 23.2842 17.8701 23.1967C17.7826 23.1091 17.7334 22.9904 17.7334 22.8667V14.4667H19.6276C19.7469 15.5335 20.2701 16.5141 21.0898 17.2072C21.9096 17.9003 22.9635 18.2532 24.0353 18.1935C25.1071 18.1338 26.1154 17.6659 26.853 16.886C27.5906 16.1062 28.0016 15.0735 28.0016 14C28.0016 12.9266 27.5906 11.8938 26.853 11.114C26.1154 10.3341 25.1071 9.86624 24.0353 9.80651C22.9635 9.74678 21.9096 10.0997 21.0898 10.7928C20.2701 11.4859 19.7469 12.4665 19.6276 13.5333H17.7334V5.13334C17.7334 5.00957 17.7826 4.89087 17.8701 4.80336C17.9576 4.71584 18.0763 4.66667 18.2001 4.66667ZM22.5928 7.23334C22.7148 7.02092 22.8906 6.84443 23.1026 6.72171C23.3146 6.59898 23.5552 6.53435 23.8001 6.53435C24.045 6.53435 24.2856 6.59898 24.4976 6.72171C24.7096 6.84443 24.8854 7.02092 25.0074 7.23334C24.2327 7.54601 23.3675 7.54601 22.5928 7.23334ZM23.8001 0.933339C24.4796 0.932752 25.1423 1.14429 25.6957 1.53845C26.2492 1.9326 26.6658 2.48969 26.8874 3.132C27.109 3.7743 27.1246 4.46977 26.932 5.12136C26.7393 5.77294 26.3481 6.34813 25.8128 6.76667C25.61 6.4119 25.3171 6.11704 24.9636 5.91196C24.6101 5.70688 24.2088 5.59887 23.8001 5.59887C23.3915 5.59887 22.9901 5.70688 22.6366 5.91196C22.2832 6.11704 21.9902 6.4119 21.7874 6.76667C21.2521 6.34813 20.8609 5.77294 20.6682 5.12136C20.4756 4.46977 20.4912 3.7743 20.7128 3.132C20.9344 2.48969 21.351 1.9326 21.9045 1.53845C22.458 1.14429 23.1206 0.932752 23.8001 0.933339ZM0.933443 14C0.934184 13.2576 1.22942 12.5459 1.75436 12.0209C2.2793 11.496 2.99106 11.2007 3.73344 11.2H6.06678V16.8H3.73344C2.99106 16.7993 2.2793 16.504 1.75436 15.9791C1.22942 15.4541 0.934184 14.7424 0.933443 14ZM5.13344 21.4667C4.88591 21.4667 4.64851 21.3683 4.47348 21.1933C4.29844 21.0183 4.20011 20.7809 4.20011 20.5333V17.7333H6.06678V20.5333C6.06678 20.7809 5.96844 21.0183 5.79341 21.1933C5.61837 21.3683 5.38098 21.4667 5.13344 21.4667ZM7.00011 16.9554V11.0446L11.6668 9.10001V18.9L7.00011 16.9554ZM14.4668 20.5333C14.4668 20.7809 14.3684 21.0183 14.1934 21.1933C14.0184 21.3683 13.781 21.4667 13.5334 21.4667C13.2859 21.4667 13.0485 21.3683 12.8735 21.1933C12.6984 21.0183 12.6001 20.7809 12.6001 20.5333V7.46667C12.6001 7.21914 12.6984 6.98174 12.8735 6.80671C13.0485 6.63167 13.2859 6.53334 13.5334 6.53334C13.781 6.53334 14.0184 6.63167 14.1934 6.80671C14.3684 6.98174 14.4668 7.21914 14.4668 7.46667V20.5333ZM22.5928 26.8333C22.7148 26.6209 22.8906 26.4444 23.1026 26.3217C23.3146 26.199 23.5552 26.1344 23.8001 26.1344C24.045 26.1344 24.2856 26.199 24.4976 26.3217C24.7096 26.4444 24.8854 26.6209 25.0074 26.8333C24.2327 27.146 23.3675 27.146 22.5928 26.8333ZM23.8001 20.5333C24.4796 20.5327 25.1424 20.7441 25.6959 21.1382C26.2494 21.5324 26.6661 22.0895 26.8878 22.7318C27.1095 23.3741 27.1251 24.0696 26.9325 24.7212C26.7399 25.3729 26.3486 25.9481 25.8133 26.3667C25.6103 26.012 25.3172 25.7173 24.9637 25.5124C24.6101 25.3074 24.2087 25.1995 23.8001 25.1995C23.3915 25.1995 22.9901 25.3074 22.6366 25.5124C22.283 25.7173 21.9899 26.012 21.7869 26.3667C21.2516 25.9481 20.8604 25.3729 20.6677 24.7212C20.4751 24.0696 20.4907 23.3741 20.7124 22.7318C20.9341 22.0895 21.3508 21.5324 21.9043 21.1382C22.4578 20.7441 23.1206 20.5327 23.8001 20.5333ZM22.5928 17.0333C22.7148 16.8209 22.8906 16.6444 23.1026 16.5217C23.3146 16.399 23.5552 16.3344 23.8001 16.3344C24.045 16.3344 24.2856 16.399 24.4976 16.5217C24.7096 16.6444 24.8854 16.8209 25.0074 17.0333C24.2327 17.346 23.3675 17.346 22.5928 17.0333ZM23.8001 10.7333C24.4796 10.7327 25.1424 10.9441 25.6959 11.3382C26.2494 11.7324 26.6661 12.2895 26.8878 12.9318C27.1095 13.5741 27.1251 14.2696 26.9325 14.9212C26.7399 15.5729 26.3486 16.1481 25.8133 16.5667C25.6103 16.212 25.3172 15.9173 24.9637 15.7124C24.6101 15.5074 24.2087 15.3995 23.8001 15.3995C23.3915 15.3995 22.9901 15.5074 22.6366 15.7124C22.283 15.9173 21.9899 16.212 21.7869 16.5667C21.2516 16.1481 20.8604 15.5729 20.6677 14.9212C20.4751 14.2696 20.4907 13.5741 20.7124 12.9318C20.9341 12.2895 21.3508 11.7324 21.9043 11.3382C22.4578 10.9441 23.1206 10.7327 23.8001 10.7333Z" fill="#2BB19C"/>
</g>
</g>
<defs>
<clipPath id="clip0_164_809">
<rect width="28" height="28" fill="white"/>
</clipPath>
</defs>
</svg>
