<svg width="28" height="28" viewBox="0 0 28 28" fill="none" xmlns="http://www.w3.org/2000/svg">
<g id="Frame">
<g id="Group">
<path id="Vector" d="M10.0684 16.6533C9.71469 16.8567 9.56785 17.2793 9.71906 17.6581C9.88379 18.0705 10.1074 18.4569 10.3828 18.8052C10.6351 19.1247 11.0742 19.2085 11.4265 19.0046C11.5497 18.9334 11.6896 18.8959 11.8319 18.8957C11.9742 18.8956 12.1141 18.9329 12.2375 19.0038C12.3607 19.0752 12.4629 19.1778 12.534 19.3012C12.605 19.4246 12.6424 19.5645 12.6423 19.7069C12.6417 20.115 12.9345 20.4534 13.3384 20.5116C13.7772 20.5745 14.2227 20.5745 14.6616 20.5115C15.0654 20.4534 15.3582 20.115 15.3576 19.7068C15.3576 19.5644 15.3949 19.4245 15.466 19.3011C15.537 19.1778 15.6393 19.0752 15.7625 19.0038C15.8859 18.9329 16.0258 18.8956 16.1681 18.8958C16.3105 18.8959 16.4503 18.9334 16.5735 19.0046C16.9259 19.2085 17.3648 19.1247 17.6172 18.8053C17.8927 18.4569 18.1162 18.0705 18.281 17.6581C18.4323 17.2792 18.2853 16.8567 17.9316 16.6533C17.6808 16.5091 17.5249 16.24 17.5249 15.9511C17.5249 15.6622 17.6808 15.3931 17.9317 15.2489C18.2853 15.0455 18.4323 14.6229 18.281 14.2441C18.1163 13.8316 17.8927 13.4452 17.6172 13.0969C17.3648 12.7775 16.9258 12.6937 16.5735 12.8976C16.4503 12.9688 16.3105 13.0063 16.1681 13.0064C16.0258 13.0066 15.8859 12.9693 15.7625 12.8984C15.6393 12.827 15.5371 12.7244 15.466 12.601C15.395 12.4776 15.3576 12.3377 15.3577 12.1953C15.3583 11.7872 15.0655 11.4488 14.6616 11.3906C14.2228 11.3279 13.7773 11.3279 13.3384 11.3906C12.9345 11.4488 12.6418 11.7872 12.6423 12.1953C12.6424 12.3377 12.605 12.4776 12.534 12.601C12.4629 12.7244 12.3607 12.8269 12.2375 12.8983C12.1141 12.9693 11.9742 13.0065 11.8319 13.0064C11.6896 13.0063 11.5497 12.9687 11.4265 12.8976C11.0741 12.6936 10.6351 12.7775 10.3828 13.0968C10.1073 13.4452 9.88376 13.8316 9.71906 14.244C9.5678 14.6229 9.71474 15.0455 10.0684 15.2488C10.3192 15.3931 10.4751 15.6621 10.4751 15.951C10.4751 16.24 10.3192 16.5091 10.0684 16.6533ZM10.341 17.1274C10.761 16.8859 11.0219 16.4352 11.0219 15.9511C11.0219 15.467 10.761 15.0163 10.341 14.7748C10.2854 14.7433 10.2432 14.6926 10.2222 14.6323C10.2012 14.5719 10.2029 14.506 10.227 14.4468C10.3721 14.0834 10.5691 13.7429 10.8119 13.436C10.8512 13.3857 10.9074 13.3514 10.97 13.3395C11.0327 13.3275 11.0976 13.3387 11.1526 13.371C11.5715 13.6136 12.0921 13.614 12.511 13.3721C12.9301 13.1302 13.19 12.679 13.1893 12.1947C13.1888 12.1308 13.2115 12.0689 13.2533 12.0205C13.2951 11.9722 13.3531 11.9407 13.4164 11.932C13.8035 11.8767 14.1965 11.8767 14.5836 11.932C14.6469 11.9407 14.7049 11.9722 14.7467 12.0205C14.7886 12.0688 14.8113 12.1308 14.8108 12.1947C14.8101 12.679 15.07 13.1302 15.4891 13.3721C15.908 13.614 16.4285 13.6136 16.8475 13.3711C16.9025 13.3388 16.9674 13.3276 17.0301 13.3395C17.0927 13.3515 17.1489 13.3858 17.1882 13.4361C17.4309 13.743 17.628 14.0835 17.7732 14.4469C17.7972 14.5061 17.7989 14.572 17.778 14.6324C17.757 14.6927 17.7147 14.7434 17.6591 14.7749C17.2391 15.0164 16.9781 15.4671 16.9781 15.9512C16.9781 16.4353 17.239 16.886 17.6591 17.1275C17.7147 17.159 17.7569 17.2097 17.7779 17.27C17.7989 17.3304 17.7972 17.3963 17.7731 17.4555C17.6279 17.8189 17.4309 18.1594 17.1882 18.4663C17.1489 18.5166 17.0927 18.5509 17.0301 18.5629C16.9674 18.5748 16.9025 18.5636 16.8475 18.5314C16.4285 18.2888 15.908 18.2884 15.4891 18.5303C15.0701 18.7722 14.8101 19.2233 14.8109 19.7077C14.8114 19.7716 14.7886 19.8335 14.7468 19.8818C14.705 19.9302 14.647 19.9616 14.5837 19.9704C14.1966 20.0256 13.8035 20.0256 13.4164 19.9704C13.3531 19.9617 13.2951 19.9302 13.2533 19.8818C13.2115 19.8335 13.1888 19.7716 13.1893 19.7077C13.19 19.2233 12.9301 18.7722 12.511 18.5302C12.3048 18.4114 12.071 18.3489 11.833 18.3491C11.5977 18.3491 11.3624 18.4098 11.1526 18.5313C11.0976 18.5635 11.0328 18.5748 10.9701 18.5628C10.9074 18.5508 10.8512 18.5165 10.812 18.4662C10.5693 18.1593 10.3722 17.8188 10.2271 17.4554C10.2029 17.3962 10.2012 17.3303 10.2222 17.2699C10.2431 17.2096 10.2854 17.1589 10.341 17.1274ZM14 17.6998C14.9642 17.6998 15.7487 16.9153 15.7487 15.9511C15.7487 14.9868 14.9642 14.2024 14 14.2024C13.0358 14.2024 12.2513 14.9868 12.2513 15.951C12.2513 16.9153 13.0358 17.6998 14 17.6998ZM14 14.7492C14.6627 14.7492 15.2019 15.2883 15.2019 15.9511C15.2019 16.6138 14.6627 17.1529 14 17.1529C13.3373 17.1529 12.7981 16.6138 12.7981 15.951C12.7982 15.2884 13.3373 14.7492 14 14.7492ZM19.1964 6.13677C19.236 6.07603 19.2981 6.0335 19.369 6.01853C19.44 6.00357 19.514 6.0174 19.5747 6.05698C20.9505 6.95342 22.1272 8.16967 22.9777 9.57426C23.7303 10.8172 24.2338 12.2182 24.4483 13.6568L24.9412 13.165C24.9926 13.1142 25.062 13.0858 25.1344 13.086C25.2067 13.0862 25.276 13.1151 25.327 13.1663C25.3781 13.2175 25.4068 13.2868 25.4069 13.3592C25.407 13.4315 25.3784 13.5009 25.3274 13.5522L24.4394 14.4382C24.3945 14.4837 24.3351 14.5119 24.2715 14.518H24.2711L24.2705 14.5181L24.2697 14.5181L24.2688 14.5182L24.268 14.5182L24.2672 14.5183C24.209 14.5231 24.1507 14.5091 24.1011 14.4783L23.0412 13.8393C22.9799 13.8015 22.936 13.741 22.9191 13.671C22.9021 13.6011 22.9135 13.5272 22.9506 13.4655C22.9878 13.4039 23.0478 13.3593 23.1176 13.3416C23.1874 13.3239 23.2614 13.3345 23.3235 13.371L23.9057 13.7219C23.4659 10.7642 21.8004 8.15977 19.2762 6.51499C19.2461 6.4954 19.2202 6.47008 19.1999 6.44047C19.1796 6.41086 19.1653 6.37754 19.1579 6.34241C19.1505 6.30729 19.1501 6.27105 19.1567 6.23576C19.1633 6.20048 19.1768 6.16684 19.1964 6.13677ZM18.6689 24.7063C18.6852 24.7383 18.695 24.7732 18.6978 24.809C18.7005 24.8448 18.6962 24.8808 18.6851 24.915C18.6739 24.9491 18.6562 24.9807 18.6328 25.008C18.6094 25.0352 18.5809 25.0576 18.5489 25.0739C17.0847 25.8171 15.443 26.228 13.8014 26.2623C12.3479 26.2927 10.8836 26.0281 9.53039 25.4946L9.70988 26.1673C9.72067 26.2078 9.72201 26.2503 9.71379 26.2914C9.70556 26.3325 9.688 26.3712 9.66245 26.4044C9.6369 26.4377 9.60404 26.4646 9.56643 26.4832C9.52882 26.5017 9.48745 26.5113 9.44552 26.5113C9.3853 26.5112 9.32679 26.4913 9.27905 26.4546C9.23132 26.4179 9.19702 26.3665 9.18148 26.3083L8.85823 25.0965C8.84174 25.0369 8.84606 24.9734 8.87048 24.9166L8.87064 24.9162C8.8949 24.8594 8.93775 24.8126 8.99216 24.7834L10.0758 24.1847C10.1392 24.1507 10.2135 24.143 10.2824 24.1634C10.3514 24.1837 10.4096 24.2304 10.4444 24.2934C10.4792 24.3564 10.4878 24.4305 10.4683 24.4997C10.4488 24.569 10.4028 24.6277 10.3403 24.6633L9.74526 24.992C12.5267 26.0901 15.6149 25.9499 18.3014 24.5863C18.3661 24.5534 18.4411 24.5477 18.51 24.5702C18.579 24.5927 18.6361 24.6416 18.6689 24.7063ZM2.59268 14.6769C2.68111 13.0373 3.14606 11.4101 3.93723 9.97129C4.63734 8.69806 5.59896 7.56149 6.73755 6.65641L6.06528 6.47545C5.99526 6.4566 5.93559 6.41072 5.8994 6.34788C5.8632 6.28504 5.85345 6.2104 5.87229 6.14038C5.88161 6.1057 5.89767 6.0732 5.91955 6.04473C5.94144 6.01626 5.96872 5.99238 5.99984 5.97445C6.03095 5.95653 6.0653 5.94492 6.1009 5.94027C6.13651 5.93563 6.17269 5.93805 6.20736 5.94739L7.41841 6.27332C7.4783 6.28891 7.53326 6.32484 7.57203 6.3792C7.60802 6.42973 7.62442 6.4883 7.62267 6.54589L7.59932 7.78368C7.59648 7.93468 7.47179 8.05384 7.3208 8.05193C7.24829 8.05056 7.1793 8.02045 7.12899 7.96822C7.07869 7.91598 7.05119 7.84591 7.05255 7.7734L7.06535 7.09375C4.72374 8.9535 3.30105 11.6981 3.13873 14.7065C3.13711 14.7425 3.12835 14.7779 3.11297 14.8106C3.09759 14.8433 3.07589 14.8726 3.04912 14.8969C3.02235 14.9211 2.99104 14.9398 2.957 14.9519C2.92296 14.9639 2.88687 14.9692 2.85081 14.9672C2.81474 14.9653 2.77942 14.9562 2.74689 14.9405C2.71435 14.9248 2.68524 14.9029 2.66124 14.8759C2.63724 14.8489 2.61883 14.8174 2.60706 14.7833C2.59529 14.7491 2.5904 14.713 2.59268 14.6769ZM10.2014 9.5444H17.7986C17.8712 9.5444 17.9407 9.51559 17.992 9.46431C18.0433 9.41303 18.0721 9.34349 18.0721 9.27097C18.0721 7.44118 16.8588 5.88969 15.1946 5.37798C15.7578 4.99462 16.1285 4.34849 16.1285 3.61726C16.1285 2.44361 15.1737 1.48877 14.0001 1.48877C12.8264 1.48877 11.8716 2.44361 11.8716 3.61726C11.8716 4.34849 12.2423 4.99462 12.8055 5.37798C11.1413 5.88969 9.92797 7.44118 9.92797 9.27097C9.92796 9.30687 9.93503 9.34243 9.94876 9.3756C9.9625 9.40878 9.98263 9.43892 10.008 9.46431C10.0334 9.4897 10.0635 9.50985 10.0967 9.52359C10.1299 9.53733 10.1654 9.5444 10.2014 9.5444ZM12.4184 3.61726C12.4184 2.74516 13.1279 2.03564 14 2.03564C14.8721 2.03564 15.5816 2.74516 15.5816 3.61726C15.5816 4.4892 14.8724 5.19861 14.0005 5.19888H13.9994C13.1276 5.19861 12.4184 4.4892 12.4184 3.61726ZM13.9995 5.74575H14.0005C15.8522 5.74603 17.3748 7.18108 17.5147 8.99753H10.4853C10.6252 7.18114 12.1478 5.74608 13.9995 5.74575ZM9.5661 23.3476C9.5661 21.5178 8.3528 19.9664 6.68855 19.4547C7.25184 19.0713 7.62251 18.4252 7.62251 17.6939C7.62251 16.5203 6.66766 15.5654 5.49402 15.5654C4.32037 15.5654 3.36552 16.5203 3.36552 17.6939C3.36552 18.4252 3.73625 19.0713 4.29948 19.4547C2.63523 19.9664 1.42188 21.5178 1.42188 23.3476C1.42188 23.4202 1.45068 23.4897 1.50196 23.541C1.55324 23.5923 1.62279 23.6211 1.69531 23.6211H9.29261C9.32852 23.6211 9.36408 23.614 9.39727 23.6003C9.43045 23.5865 9.4606 23.5664 9.48599 23.541C9.51139 23.5156 9.53154 23.4855 9.54528 23.4523C9.55903 23.4191 9.5661 23.3836 9.5661 23.3476ZM3.91234 17.694C3.91234 16.8219 4.62186 16.1124 5.49396 16.1124C6.36606 16.1124 7.07558 16.8219 7.07558 17.694C7.07558 18.5661 6.36606 19.2756 5.49396 19.2756C4.62186 19.2756 3.91234 18.5661 3.91234 17.694ZM1.97925 23.0742C2.1192 21.2576 3.64208 19.8224 5.49396 19.8224C7.34584 19.8224 8.86878 21.2576 9.00873 23.0742H1.97925ZM23.7006 19.4547C24.2639 19.0713 24.6345 18.4252 24.6345 17.694C24.6345 16.5203 23.6797 15.5655 22.506 15.5655C21.3324 15.5655 20.3775 16.5203 20.3775 17.694C20.3775 18.4252 20.7483 19.0713 21.3115 19.4547C19.6473 19.9664 18.434 21.5179 18.434 23.3477C18.434 23.4202 18.4628 23.4898 18.514 23.541C18.5653 23.5923 18.6349 23.6211 18.7074 23.6211H26.3047C26.3772 23.6211 26.4468 23.5923 26.498 23.541C26.5493 23.4898 26.5781 23.4202 26.5781 23.3477C26.5781 21.5178 25.3648 19.9664 23.7006 19.4547ZM20.9244 17.694C20.9244 16.8219 21.6339 16.1124 22.506 16.1124C23.3781 16.1124 24.0877 16.8219 24.0877 17.694C24.0877 18.5661 23.3781 19.2756 22.506 19.2756C21.6339 19.2756 20.9244 18.5661 20.9244 17.694ZM18.9913 23.0742C19.1313 21.2576 20.6542 19.8224 22.506 19.8224C24.3579 19.8224 25.8808 21.2576 26.0208 23.0742H18.9913Z" fill="#2BB19C"/>
</g>
</g>
</svg>
