<svg width="41" height="41" viewBox="0 0 41 41" fill="none" xmlns="http://www.w3.org/2000/svg">
<g id="vuesax/bold/star">
<g id="star">
<path id="Vector" d="M10.2071 27.3084C10.3905 26.4918 10.0571 25.3251 9.4738 24.7418L5.4238 20.6918C4.15714 19.4251 3.65714 18.0751 4.0238 16.9084C4.40714 15.7418 5.59047 14.9418 7.35714 14.6418L12.5571 13.7751C13.3071 13.6418 14.2238 12.9751 14.5738 12.2918L17.4405 6.54176C18.2738 4.89176 19.4071 3.9751 20.6405 3.9751C21.8738 3.9751 23.0071 4.89176 23.8405 6.54176L26.7071 12.2918C26.9238 12.7251 27.3738 13.1418 27.8571 13.4251L9.90714 31.3751C9.6738 31.6084 9.2738 31.3918 9.34047 31.0584L10.2071 27.3084Z" fill="#2A9D8F"/>
<path id="Vector_2" d="M31.8096 24.7418C31.2096 25.3418 30.8762 26.4918 31.0762 27.3084L32.2262 32.3251C32.7096 34.4084 32.4096 35.9751 31.3762 36.7251C30.9596 37.0251 30.4596 37.1751 29.8762 37.1751C29.0262 37.1751 28.0262 36.8584 26.9262 36.2084L22.0429 33.3084C21.2762 32.8584 20.0096 32.8584 19.2429 33.3084L14.3596 36.2084C12.5096 37.2918 10.9262 37.4751 9.90957 36.7251C9.52624 36.4418 9.2429 36.0584 9.05957 35.5584L29.3262 15.2918C30.0929 14.5251 31.1762 14.1751 32.2262 14.3584L33.9096 14.6418C35.6762 14.9418 36.8596 15.7418 37.2429 16.9084C37.6096 18.0751 37.1096 19.4251 35.8429 20.6918L31.8096 24.7418Z" fill="#2A9D8F"/>
</g>
</g>
</svg>
