<svg width="28" height="28" viewBox="0 0 28 28" fill="none" xmlns="http://www.w3.org/2000/svg">
<g id="Frame">
<g id="Group">
<path id="Vector" d="M14 2.1875C11.9919 2.1875 2.1875 2.30563 2.1875 5.61313V22.3869C2.1875 25.6944 11.9919 25.8125 14 25.8125C16.0081 25.8125 25.8125 25.6944 25.8125 22.3869V5.61313C25.8125 2.30563 16.0081 2.1875 14 2.1875ZM14 4.55C18.2525 4.55 21.3237 5.14062 22.7412 5.61313C21.3237 6.08562 18.1344 6.67625 14 6.67625C9.86562 6.67625 6.67625 6.08562 5.25875 5.61313C6.67625 5.14062 9.7475 4.55 14 4.55ZM23.45 22.1506C22.6231 22.7412 19.0794 23.45 14 23.45C8.92062 23.45 5.37687 22.6231 4.55 22.1506V19.0794C7.62125 20.1425 12.7006 20.2606 14 20.2606C15.2994 20.2606 20.3787 20.1425 23.45 19.0794V22.1506ZM23.45 16.4806C22.6231 17.0712 19.0794 17.78 14 17.78C8.92062 17.78 5.37687 16.9531 4.55 16.4806V13.4094C7.62125 14.4725 12.7006 14.5906 14 14.5906C15.2994 14.5906 20.3787 14.4725 23.45 13.4094V16.4806ZM23.45 10.9288C22.6231 11.5194 19.0794 12.2281 14 12.2281C8.92062 12.2281 5.37687 11.4012 4.55 10.9288V7.8575C7.62125 8.92063 12.7006 9.03875 14 9.03875C15.2994 9.03875 20.3787 8.92063 23.45 7.8575V10.9288Z" fill="#2BB19C"/>
</g>
</g>
</svg>
